<svg xmlns="http://www.w3.org/2000/svg" width="22" height="22" viewBox="0 0 22 22">
  <path id="Icon_material-language" data-name="Icon material-language" d="M13.989,3A11,11,0,1,0,25,14,10.995,10.995,0,0,0,13.989,3Zm7.623,6.6H18.367a17.214,17.214,0,0,0-1.518-3.916A8.833,8.833,0,0,1,21.612,9.6ZM14,5.244A15.5,15.5,0,0,1,16.1,9.6H11.9A15.5,15.5,0,0,1,14,5.244ZM5.486,16.2a8.6,8.6,0,0,1,0-4.4H9.2A18.167,18.167,0,0,0,9.05,14,18.167,18.167,0,0,0,9.2,16.2Zm.9,2.2H9.633a17.214,17.214,0,0,0,1.518,3.916A8.785,8.785,0,0,1,6.388,18.4ZM9.633,9.6H6.388a8.785,8.785,0,0,1,4.763-3.916A17.214,17.214,0,0,0,9.633,9.6ZM14,22.756A15.5,15.5,0,0,1,11.9,18.4h4.2A15.5,15.5,0,0,1,14,22.756ZM16.574,16.2H11.426A16.184,16.184,0,0,1,11.25,14a16.044,16.044,0,0,1,.176-2.2h5.148A16.043,16.043,0,0,1,16.75,14,16.184,16.184,0,0,1,16.574,16.2Zm.275,6.116A17.214,17.214,0,0,0,18.367,18.4h3.245a8.833,8.833,0,0,1-4.763,3.916ZM18.8,16.2A18.167,18.167,0,0,0,18.95,14a18.167,18.167,0,0,0-.154-2.2h3.718a8.6,8.6,0,0,1,0,4.4Z" transform="translate(-3 -3)" fill="#d8c0a1"/>
</svg>
