<svg xmlns="http://www.w3.org/2000/svg" xmlns:xlink="http://www.w3.org/1999/xlink" width="120" height="47.595" viewBox="0 0 120 47.595">
  <defs>
    <clipPath id="clip-path">
      <rect id="矩形_271" data-name="矩形 271" width="120" height="47.595" fill="none"/>
    </clipPath>
    <clipPath id="clip-path-2">
      <path id="路径_3849" data-name="路径 3849" d="M14.611,1.343C10.7,1.815,7.583,2.15,5.22,2.562a7.765,7.765,0,0,0-3.727,1.4A4.906,4.906,0,0,0,.06,7.231a13.388,13.388,0,0,0,.119,3.314,79.882,79.882,0,0,0,1.231,8.667c.618,3.3,1.369,6.429,2.035,9.416.305,1.38.637,2.711,1,4.022A20.123,20.123,0,0,0,5.5,35.792a5.109,5.109,0,0,0,3.874,3.2c1.776.241,4.2.2,8.148.324,8.231.26,16.564.561,24.824.733,11.08.237,45.741.516,56.842.574,2.038.009,3.7.061,5.14.087a11.642,11.642,0,0,0,3.416-.268,5.65,5.65,0,0,0,3.286-1.183A7.668,7.668,0,0,0,113,35.68q.795-2.6,1.369-5.257c.511-2.363.822-4.789,1.393-7.2.615-2.559,1.193-5.149,1.574-7.8a44.177,44.177,0,0,0,.421-4.6c.126-3.153.316-6.918-3.463-8.2A26.361,26.361,0,0,0,109,1.73,140.861,140.861,0,0,0,94.472.611C84.871.386,68.358,0,52.211,0c-14.636,0-28.97.312-37.6,1.338" transform="translate(0 -0.005)" fill="none"/>
    </clipPath>
    <linearGradient id="linear-gradient" x1="-0.015" y1="0.712" x2="-0.011" y2="0.712" gradientUnits="objectBoundingBox">
      <stop offset="0" stop-color="#eac991"/>
      <stop offset="0.137" stop-color="#eac991"/>
      <stop offset="0.512" stop-color="#d5a76f"/>
      <stop offset="1" stop-color="#a14e01"/>
    </linearGradient>
    <clipPath id="clip-path-4">
      <rect id="矩形_237" data-name="矩形 237" width="107.034" height="31.971" fill="none"/>
    </clipPath>
    <clipPath id="clip-path-5">
      <rect id="矩形_238" data-name="矩形 238" width="106.372" height="8.481" fill="none"/>
    </clipPath>
    <clipPath id="clip-path-6">
      <rect id="矩形_239" data-name="矩形 239" width="13.403" height="7.148" fill="none"/>
    </clipPath>
    <clipPath id="clip-path-7">
      <rect id="矩形_240" data-name="矩形 240" width="20.653" height="6.078" fill="none"/>
    </clipPath>
    <clipPath id="clip-path-8">
      <rect id="矩形_241" data-name="矩形 241" width="7.981" height="5.108" fill="none"/>
    </clipPath>
    <clipPath id="clip-path-9">
      <rect id="矩形_242" data-name="矩形 242" width="8.369" height="26.4" fill="none"/>
    </clipPath>
    <clipPath id="clip-path-10">
      <rect id="矩形_243" data-name="矩形 243" width="6.264" height="5.175" fill="none"/>
    </clipPath>
    <clipPath id="clip-path-11">
      <rect id="矩形_244" data-name="矩形 244" width="5.547" height="4.306" fill="none"/>
    </clipPath>
    <clipPath id="clip-path-12">
      <rect id="矩形_245" data-name="矩形 245" width="4.867" height="4.083" fill="none"/>
    </clipPath>
    <clipPath id="clip-path-13">
      <rect id="矩形_246" data-name="矩形 246" width="4.016" height="6.284" fill="none"/>
    </clipPath>
    <clipPath id="clip-path-14">
      <rect id="矩形_247" data-name="矩形 247" width="8.064" height="7.178" fill="none"/>
    </clipPath>
    <clipPath id="clip-path-15">
      <rect id="矩形_248" data-name="矩形 248" width="7.775" height="3.866" fill="none"/>
    </clipPath>
    <clipPath id="clip-path-16">
      <rect id="矩形_249" data-name="矩形 249" width="10.1" height="7.404" fill="none"/>
    </clipPath>
    <clipPath id="clip-path-17">
      <rect id="矩形_250" data-name="矩形 250" width="44.035" height="7.399" fill="none"/>
    </clipPath>
    <clipPath id="clip-path-18">
      <rect id="矩形_251" data-name="矩形 251" width="38.522" height="20.317" fill="none"/>
    </clipPath>
    <clipPath id="clip-path-19">
      <rect id="矩形_252" data-name="矩形 252" width="6.588" height="7.27" fill="none"/>
    </clipPath>
    <clipPath id="clip-path-20">
      <rect id="矩形_253" data-name="矩形 253" width="2.574" height="7.275" fill="none"/>
    </clipPath>
    <clipPath id="clip-path-21">
      <rect id="矩形_254" data-name="矩形 254" width="7.074" height="7.628" fill="none"/>
    </clipPath>
    <clipPath id="clip-path-22">
      <rect id="矩形_256" data-name="矩形 256" width="117.582" height="37.664" fill="none"/>
    </clipPath>
    <clipPath id="clip-path-23">
      <rect id="矩形_255" data-name="矩形 255" width="5.376" height="6.246" fill="none"/>
    </clipPath>
    <clipPath id="clip-path-24">
      <rect id="矩形_257" data-name="矩形 257" width="117.812" height="40.72" fill="none"/>
    </clipPath>
    <clipPath id="clip-path-25">
      <path id="路径_3878" data-name="路径 3878" d="M14.751,5.806C11.043,6.293,7.939,6.83,6.475,8.6c-1.054,1.282-.937,2.812-.656,4.313.32,2.772.444,4.724.827,6.993.473,2.777.979,5.455,1.644,8.05.282,1.11.576,2.208.9,3.286a13.922,13.922,0,0,0,.97,2.746c.678,1.228,1.764,1.889,3.713,1.839A.252.252,0,0,0,14,35.783c2.133.161,6.018.07,8.857.231,9.211.523,42.127.659,51.4.9,9.019.226,18.219.679,27.121.418.994-.031,2.32-.007,3.6.017,1.2.023,2.353.046,3.146.022a4.7,4.7,0,0,0,3.289-1.173c.946-.861,1.249-2.54,1.506-3.688.858-3.828,1.58-7.735,2.068-11.715.255-2.107.52-4.083.752-6.209a32.255,32.255,0,0,0,.317-5.72c-.151-2.368-2.292-2.68-5.6-3.029-10.873-1.7-28.161-2.449-45.692-2.449-19.007,0-38.3.885-50.011,2.415" transform="translate(-5.625 -3.391)" fill="none" stroke="#fff" stroke-width="1"/>
    </clipPath>
    <linearGradient id="linear-gradient-2" x1="0.5" x2="0.518" y2="0.935" gradientUnits="objectBoundingBox">
      <stop offset="0" stop-color="#f8edd1"/>
      <stop offset="1" stop-color="#eaca92"/>
    </linearGradient>
    <clipPath id="clip-path-27">
      <rect id="矩形_262" data-name="矩形 262" width="110.467" height="34.021" fill="none"/>
    </clipPath>
    <clipPath id="clip-path-28">
      <path id="路径_3879" data-name="路径 3879" d="M114.985,20.8c.255-2.106.52-4.082.752-6.209a32.239,32.239,0,0,0,.317-5.719c-.151-2.368-2.292-2.68-5.6-3.029-22.662-3.535-73.189-2.975-95.7-.034C11.043,6.292,7.939,6.83,6.475,8.6c-1.053,1.282-.937,2.812-.656,4.312.32,2.773.445,4.724.827,6.993.473,2.778.979,5.456,1.644,8.05.282,1.111.576,2.208.9,3.286a13.939,13.939,0,0,0,.97,2.746c.678,1.227,1.764,1.889,3.713,1.839A.259.259,0,0,0,14,35.783c2.133.161,6.018.071,8.857.231,9.211.523,42.127.659,51.4.9,9.02.226,18.22.679,27.122.418,1.927-.062,5.1.089,6.743.039a4.7,4.7,0,0,0,3.289-1.173c.946-.86,1.249-2.54,1.506-3.689.858-3.827,1.58-7.735,2.068-11.715m-2.36,10.944a10.372,10.372,0,0,1-1.212,3.634c-1.315,1.924-4.014,1.377-6.827,1.448-9.472.209-18.992-.061-28.443-.279-9.419-.222-42.441-.45-51.855-.854a100.909,100.909,0,0,0-10.562-.2,6.123,6.123,0,0,1-2.333-.572,3.441,3.441,0,0,1-1.277-1.758,42.779,42.779,0,0,1-1.9-6.761A114.933,114.933,0,0,1,6.54,14.721c.106.442-.926-4.693.647-6.163C9.062,6.8,13.539,6.482,17.974,5.962c13.453-1.552,51.272-.953,64.788-.968,7.181,0,14.551-.159,21.7.638,2.514.282,4.6.484,6.358.713,1.964.257,3.487.321,4.209,1.653.82,1.509.607,3.35.459,4.875-.272,2.675-.826,5.368-1.088,8.013a64.822,64.822,0,0,1-1.2,7.64c-.159.747-.311,1.963-.574,3.215" transform="translate(-5.625 -3.391)" fill="none"/>
    </clipPath>
    <linearGradient id="linear-gradient-3" x1="-0.096" y1="0.707" x2="-0.091" y2="0.707" gradientUnits="objectBoundingBox">
      <stop offset="0" stop-color="#fdf9e3"/>
      <stop offset="0.365" stop-color="#eac991"/>
      <stop offset="0.942" stop-color="#d47f02"/>
      <stop offset="1" stop-color="#d47f02"/>
    </linearGradient>
    <clipPath id="clip-path-29">
      <rect id="矩形_266" data-name="矩形 266" width="102.258" height="12.465" fill="none"/>
    </clipPath>
    <clipPath id="clip-path-30">
      <path id="路径_3880" data-name="路径 3880" d="M13.948,36.33c-1.538-5.549-.509-9.078,5.8-5.386,7.38,4.313,15.3,4.47,23.967,4.509,10.506.055,54.39,2.816,62.966-3.981,4.625-3.665,9.256-3.54,8.87,1.028-.449,5.351-2.79,8.72-10.43,8.807-20.433.259-66.731-.747-85.973-1.3-3.8-.106-4.454-.989-5.2-3.678" transform="translate(-13.316 -28.883)" fill="none"/>
    </clipPath>
    <radialGradient id="radial-gradient" cx="0.484" cy="-3.138" r="8.324" gradientUnits="objectBoundingBox">
      <stop offset="0" stop-color="#fff"/>
      <stop offset="0.837" stop-color="#fff"/>
      <stop offset="0.942" stop-color="#d47f02"/>
      <stop offset="1" stop-color="#d47f02"/>
    </radialGradient>
  </defs>
  <g id="BTN_我的商品_Active" transform="translate(-294.5 -249.332)">
    <g id="BG" transform="translate(294.5 249.332)">
      <g id="组_640" data-name="组 640" clip-path="url(#clip-path)">
        <g id="组_557" data-name="组 557" transform="translate(0 0.004)">
          <g id="组_556" data-name="组 556" clip-path="url(#clip-path-2)">
            <path id="路径_3920" data-name="路径 3920" d="M14.016,19.646,144.343-5.312,125.5,110.892-4.832,135.851Z" transform="translate(-34.858 2.585) rotate(-32.369)" fill="url(#linear-gradient)"/>
          </g>
        </g>
        <g id="组_622" data-name="组 622" transform="translate(0 0)">
          <g id="组_621" data-name="组 621" clip-path="url(#clip-path)">
            <g id="组_560" data-name="组 560" transform="translate(10.758 8.75)" opacity="0.5" style="mix-blend-mode: multiply;isolation: isolate">
              <g id="组_559" data-name="组 559">
                <g id="组_558" data-name="组 558" clip-path="url(#clip-path-4)">
                  <path id="路径_3850" data-name="路径 3850" d="M128.05,11.545c-.655-.009-1.3,0-1.965.042-1.461.1-3.1.753-5.181.432a1.105,1.105,0,0,1-.3-.1c-.5,4.911-1.33,9.8-2.248,14.657-.483,2.545.317,7.126-3.334,8.324-6.947,2.269-16.883.7-24.252.633C75.9,35.42,37.378,35.5,22.459,34.949c-.362,2.217-1.356,4.331-1.425,6.472,0,.149,0,.312,0,.487,1.626.115,3.755.11,6.758.2,8.231.253,16.564.562,24.824.733,11.079.238,45.741.517,56.842.575,2.038.008,3.7.061,5.141.087a11.686,11.686,0,0,0,3.415-.268,5.646,5.646,0,0,0,3.286-1.184,7.656,7.656,0,0,0,1.974-3.579q.8-2.6,1.37-5.257c.51-2.363.822-4.789,1.392-7.2.616-2.56,1.193-5.149,1.575-7.8a44.194,44.194,0,0,0,.421-4.6c.029-.674.045-1.371.016-2.063" transform="translate(-21.031 -11.542)" fill="#d47f02"/>
                </g>
              </g>
            </g>
            <g id="组_563" data-name="组 563" transform="translate(5.813 0.003)" opacity="0.2" style="mix-blend-mode: multiply;isolation: isolate">
              <g id="组_562" data-name="组 562">
                <g id="组_561" data-name="组 561" clip-path="url(#clip-path-5)">
                  <path id="路径_3851" data-name="路径 3851" d="M14.275,8.485C33.38,6.156,76.45,6.744,95.687,6.5a145.833,145.833,0,0,1,17.341.451c.426.042.856.113,1.276.157.424-.7.872-1.406,1.393-2.11.712-.953,1.408-1.905,2.038-2.868-.934-.154-1.985-.272-3.183-.4A141.314,141.314,0,0,0,100.023.61C81.718.181,38.311-.815,20.161,1.343c-3.589.428-6.522.754-8.8,1.122.559,1.3,1.283,2.537,1.849,3.828.325.743.666,1.471,1.062,2.193" transform="translate(-11.363 -0.004)" fill="#d47f02"/>
                </g>
              </g>
            </g>
            <g id="组_566" data-name="组 566" transform="translate(11.778 0.752)" opacity="0.2" style="mix-blend-mode: multiply;isolation: isolate">
              <g id="组_565" data-name="组 565">
                <g id="组_564" data-name="组 564" clip-path="url(#clip-path-6)">
                  <path id="路径_3852" data-name="路径 3852" d="M36.428.992c-5.562.134-7.727.275-10.57.591q-1.5.165-2.833.321a26.736,26.736,0,0,0,1.9,6.237c2.935-.321,5.076-.537,10.791-.7.19-2.12.516-4.266.713-6.45" transform="translate(-23.025 -0.992)" fill="#d47f02"/>
                </g>
              </g>
            </g>
            <g id="组_569" data-name="组 569" transform="translate(82.62 0.498)" opacity="0.2" style="mix-blend-mode: multiply;isolation: isolate">
              <g id="组_568" data-name="组 568">
                <g id="组_567" data-name="组 567" clip-path="url(#clip-path-7)">
                  <path id="路径_3853" data-name="路径 3853" d="M182.174,1.348c-2.676-.237-4.861-.473-8.8-.581-1.819-.055-4.036-.086-6.5-.111a19.511,19.511,0,0,1-4.388,5.323c-.3.252-.621.5-.96.754,2.719-.03,5.261-.051,7.516-.081,3.645-.036,6.552-.08,8.149-.1,1.209-1.834,3.417-3.463,4.989-5.209" transform="translate(-161.521 -0.657)" fill="#d47f02"/>
                </g>
              </g>
            </g>
            <g id="组_572" data-name="组 572" transform="translate(102.219 1.582)" opacity="0.2" style="mix-blend-mode: multiply;isolation: isolate">
              <g id="组_571" data-name="组 571">
                <g id="组_570" data-name="组 570" clip-path="url(#clip-path-8)">
                  <path id="路径_3854" data-name="路径 3854" d="M207.816,2.361c-.386-.037-.779-.086-1.2-.129-.45-.048-.931-.089-1.425-.146-.651,1.57-2.748,2.812-4.408,4.129a10.925,10.925,0,0,0-.95.841q1.279.065,2.409.139a52.664,52.664,0,0,0,5.572-4.834" transform="translate(-199.835 -2.087)" fill="#d47f02"/>
                </g>
              </g>
            </g>
            <g id="组_575" data-name="组 575" transform="translate(0 8.524)" opacity="0.2" style="mix-blend-mode: multiply;isolation: isolate">
              <g id="组_574" data-name="组 574">
                <g id="组_573" data-name="组 573" clip-path="url(#clip-path-9)">
                  <path id="路径_3855" data-name="路径 3855" d="M8.369,32.818a8.181,8.181,0,0,1-.25-1.471c-.183-1.28-.284-2.589-.467-3.9-.626-4.39-.522-8.942-1.928-13.455C3.09,13.364,1.157,12.568,0,11.243a17.709,17.709,0,0,0,.179,2.02,79.925,79.925,0,0,0,1.23,8.668c.618,3.3,1.369,6.429,2.035,9.416.3,1.379.636,2.71,1,4.022.206.747.42,1.538.693,2.275a11.975,11.975,0,0,1,3.232-4.825" transform="translate(0 -11.243)" fill="#d47f02"/>
                </g>
              </g>
            </g>
            <g id="组_578" data-name="组 578" transform="translate(0.22 11.012)" opacity="0.2" style="mix-blend-mode: multiply;isolation: isolate">
              <g id="组_577" data-name="组 577">
                <g id="组_576" data-name="组 576" clip-path="url(#clip-path-10)">
                  <path id="路径_3856" data-name="路径 3856" d="M6.451,17.975c.08-.025.159-.05.242-.071-.14-.757-.3-1.519-.507-2.256C3.521,15.261,1.7,14.727.429,14.526c.153,1.759.386,3.491.662,5.175,1.169-.4,2.759-1.04,5.36-1.726" transform="translate(-0.429 -14.526)" fill="#d47f02"/>
                </g>
              </g>
            </g>
            <g id="组_581" data-name="组 581" transform="translate(1.35 16.712)" opacity="0.2" style="mix-blend-mode: multiply;isolation: isolate">
              <g id="组_580" data-name="组 580">
                <g id="组_579" data-name="组 579" clip-path="url(#clip-path-11)">
                  <path id="路径_3857" data-name="路径 3857" d="M8.185,22.714c-.02-.224-.046-.448-.074-.67a20.3,20.3,0,0,0-5.473,2.162c.017.117.04.233.059.337.12.611.234,1.212.357,1.807a41.508,41.508,0,0,1,5.132-3.637" transform="translate(-2.638 -22.044)" fill="#d47f02"/>
                </g>
              </g>
            </g>
            <g id="组_584" data-name="组 584" transform="translate(2.212 19.143)" opacity="0.2" style="mix-blend-mode: multiply;isolation: isolate">
              <g id="组_583" data-name="组 583">
                <g id="组_582" data-name="组 582" clip-path="url(#clip-path-12)">
                  <path id="路径_3858" data-name="路径 3858" d="M5.683,27.945a11.1,11.1,0,0,1,1.2-1.093,14.1,14.1,0,0,1,2.314-1.443c0-.05-.011-.108-.011-.158a10.906,10.906,0,0,0-4.856,4,.233.233,0,0,1,.021.087c.056-.049.108-.114.171-.159a4.235,4.235,0,0,1,1.165-1.23" transform="translate(-4.325 -25.251)" fill="#d47f02"/>
                </g>
              </g>
            </g>
            <g id="组_587" data-name="组 587" transform="translate(3.941 26.458)" opacity="0.2" style="mix-blend-mode: multiply;isolation: isolate">
              <g id="组_586" data-name="组 586">
                <g id="组_585" data-name="组 585" clip-path="url(#clip-path-13)">
                  <path id="路径_3859" data-name="路径 3859" d="M8.234,41.184a14.173,14.173,0,0,1,3.487-5.419c-.034-.292-.064-.58-.1-.866a17.632,17.632,0,0,0-3.9,4.256c-.011.008-.015.022-.025.031.16.64.329,1.281.5,1.9.006.03.018.064.025.093" transform="translate(-7.705 -34.901)" fill="#d47f02"/>
                </g>
              </g>
            </g>
            <g id="组_590" data-name="组 590" transform="translate(109.726 5.423)" opacity="0.5" style="mix-blend-mode: multiply;isolation: isolate">
              <g id="组_589" data-name="组 589">
                <g id="组_588" data-name="组 588" clip-path="url(#clip-path-14)">
                  <path id="路径_3860" data-name="路径 3860" d="M222.067,14.24c.123.024.247.062.375.092.048-.593.086-1.179.1-1.785a13.423,13.423,0,0,0-.6-5.393c-1.9,1.072-3.983,2.339-6.684,3.746a6.793,6.793,0,0,0-.748,2.8,25.912,25.912,0,0,1,7.556.539" transform="translate(-214.511 -7.154)" fill="#d47f02"/>
                </g>
              </g>
            </g>
            <g id="组_593" data-name="组 593" transform="translate(109.248 17.171)" opacity="0.3" style="mix-blend-mode: multiply;isolation: isolate">
              <g id="组_592" data-name="组 592">
                <g id="组_591" data-name="组 591" clip-path="url(#clip-path-15)">
                  <path id="路径_3861" data-name="路径 3861" d="M214.055,22.746c-.094,1.371-.358,1.781-.478,3.14a31.7,31.7,0,0,1,7.024.631c.278-1.215.53-2.45.752-3.69-2.367-.456-4.35.144-7.3-.081" transform="translate(-213.577 -22.651)" fill="#d47f02"/>
                </g>
              </g>
            </g>
            <g id="组_596" data-name="组 596" transform="translate(7.961 31.865)" opacity="0.3" style="mix-blend-mode: multiply;isolation: isolate">
              <g id="组_595" data-name="组 595">
                <g id="组_594" data-name="组 594" clip-path="url(#clip-path-16)">
                  <path id="路径_3862" data-name="路径 3862" d="M24.387,45.131a13.811,13.811,0,0,1,1.037-2.391c.041-.06.13-.187.239-.335-3.893-.18-6.621-.52-8.541-.3-.084.242-.169.489-.256.726a32.227,32.227,0,0,0-1.127,4.954c-.064.31-.121.612-.177.917a4.433,4.433,0,0,0,1.411.458,56.973,56.973,0,0,0,5.978.277c.48-1.415.924-2.867,1.435-4.306" transform="translate(-15.563 -42.033)" fill="#d47f02"/>
                </g>
              </g>
            </g>
            <g id="组_599" data-name="组 599" transform="translate(30.188 32.821)" opacity="0.5" style="mix-blend-mode: multiply;isolation: isolate">
              <g id="组_598" data-name="组 598">
                <g id="组_597" data-name="组 597" clip-path="url(#clip-path-17)">
                  <path id="路径_3863" data-name="路径 3863" d="M101.1,43.849c-6.19-.172-35.9-.34-42.08-.553a9.229,9.229,0,0,1,1.352,6.973c3.155.094,6.778.183,10.8.254,2.758.056,29.1.114,31.88.172a14.889,14.889,0,0,1-1.955-6.845" transform="translate(-59.017 -43.295)" fill="#d47f02"/>
                </g>
              </g>
            </g>
            <g id="组_602" data-name="组 602" transform="translate(77.547 20.403)" opacity="0.2" style="mix-blend-mode: multiply;isolation: isolate">
              <g id="组_601" data-name="组 601">
                <g id="组_600" data-name="组 600" clip-path="url(#clip-path-18)">
                  <path id="路径_3864" data-name="路径 3864" d="M190.124,28.482c-2.358-.893-4.086-1.625-6.82-1.565-.032.4-.153,1.809-.186,2.2a41.677,41.677,0,0,1-1.058,7.751,3.8,3.8,0,0,1-1.849,2.427,12.964,12.964,0,0,1-5.248.854c-7.766.236-15.575.011-23.357-.124a15.13,15.13,0,0,0,1.861,6.8c6.584.117,13.188.262,19.774.3,2.038.009,3.7.061,5.14.087a11.64,11.64,0,0,0,3.415-.268,5.638,5.638,0,0,0,3.286-1.183,7.664,7.664,0,0,0,1.974-3.579q.795-2.6,1.37-5.258c.511-2.363.822-4.789,1.393-7.2.1-.418.2-.835.3-1.249" transform="translate(-151.602 -26.914)" fill="#d47f02"/>
                </g>
              </g>
            </g>
            <g id="组_605" data-name="组 605" transform="translate(97.748 33.439)" opacity="0.1" style="mix-blend-mode: screen;isolation: isolate">
              <g id="组_604" data-name="组 604">
                <g id="组_603" data-name="组 603" clip-path="url(#clip-path-19)">
                  <path id="路径_3865" data-name="路径 3865" d="M197.192,44.11c-.885.118-1.867.161-2.938.2-1.023.025-1.92.052-3.159.075.036,2.3.111,4.606.176,6.907h1.261c2.038.009,3.7.061,5.14.088h.01c-.16-2.38-.36-4.809-.491-7.271" transform="translate(-191.095 -44.11)" fill="#fdf9e3"/>
                </g>
              </g>
            </g>
            <g id="组_608" data-name="组 608" transform="translate(106.841 33.347)" opacity="0.2" style="mix-blend-mode: screen;isolation: isolate">
              <g id="组_607" data-name="组 607">
                <g id="组_606" data-name="组 606" clip-path="url(#clip-path-20)">
                  <path id="路径_3866" data-name="路径 3866" d="M210.679,47.817c-.475-1.265-1.019-2.527-1.656-3.828.192,2.43-.125,4.881-.152,7.275a7.554,7.554,0,0,0,.9-.181,10.475,10.475,0,0,0,1.674-.312,23.133,23.133,0,0,0-.767-2.954" transform="translate(-208.871 -43.989)" fill="#fdf9e3"/>
                </g>
              </g>
            </g>
            <g id="组_611" data-name="组 611" transform="translate(108.024 24.649)" opacity="0.2" style="mix-blend-mode: screen;isolation: isolate">
              <g id="组_610" data-name="组 610">
                <g id="组_609" data-name="组 609" clip-path="url(#clip-path-21)">
                  <path id="路径_3867" data-name="路径 3867" d="M218.259,34.432c-2.182-.785-3.8-1.69-6.205-1.916a43.019,43.019,0,0,1-.869,5.649A11.882,11.882,0,0,1,215.5,39.39q.771.348,1.6.754c.146-.609.3-1.233.433-1.857.275-1.272.5-2.561.726-3.855" transform="translate(-211.185 -32.515)" fill="#fdf9e3"/>
                </g>
              </g>
            </g>
            <g id="组_617" data-name="组 617" transform="translate(0.179 2.759)" opacity="0.5" style="mix-blend-mode: screen;isolation: isolate">
              <g id="组_616" data-name="组 616">
                <g id="组_615" data-name="组 615" clip-path="url(#clip-path-22)">
                  <path id="路径_3868" data-name="路径 3868" d="M4.43,10.01A8.323,8.323,0,0,1,5.544,8.465,31.951,31.951,0,0,1,3.337,4.039a5.092,5.092,0,0,0-1.674.9A4.323,4.323,0,0,0,.349,7.529,9.113,9.113,0,0,0,3.368,9.471c.34.174.686.361,1.062.54" transform="translate(-0.349 -3.737)" fill="#ffeed9"/>
                  <path id="路径_3869" data-name="路径 3869" d="M217.06,8.1c.194.411.423.819.633,1.232a59.641,59.641,0,0,1,6.1.031c-.13-2.355-.616-4.688-3.126-5.725a9.591,9.591,0,0,1-1.757,2.377c-.61.663-1.233,1.358-1.848,2.085" transform="translate(-106.209 -3.64)" fill="#ffdc7c"/>
                  <g id="组_614" data-name="组 614" transform="translate(106.827 31.418)" opacity="0.9" style="mix-blend-mode: screen;isolation: isolate">
                    <g id="组_613" data-name="组 613">
                      <g id="组_612" data-name="组 612" clip-path="url(#clip-path-23)">
                        <path id="路径_3870" data-name="路径 3870" d="M209.454,45.239c-.077.049-.167.122-.257.188a18.5,18.5,0,0,0,.55,2.848c.12,1.018.2,2.048.26,3.056a5.483,5.483,0,0,0,3.209-1.166,5.826,5.826,0,0,0,1.353-1.917c-1.605-1.113-3.151-2.017-4.9-3.163-.067.055-.138.1-.211.154" transform="translate(-209.194 -45.085)" fill="#ffdc7c"/>
                      </g>
                    </g>
                  </g>
                  <path id="路径_3871" data-name="路径 3871" d="M14.091,41.89a.293.293,0,0,1-.078.111,13.952,13.952,0,0,0-2.7,4.477,5.1,5.1,0,0,0,3.107,2.555c.21-2.153.384-4.445.389-6.787a7.674,7.674,0,0,1-.718-.356" transform="translate(-5.704 -12.893)" fill="#ffdc7c"/>
                </g>
              </g>
            </g>
            <path id="路径_3872" data-name="路径 3872" d="M5.874,8.245C5.2,6.949,4.445,5.7,3.892,4.375a4.7,4.7,0,0,0-1.029.641c-.023.015-.041.039-.057.05A39.051,39.051,0,0,0,5.874,8.245" transform="translate(-1.371 -1.058)" fill="#fff6e6"/>
            <path id="路径_3873" data-name="路径 3873" d="M220.134,10.069c.608-.229,1.183-.448,1.735-.654a25.406,25.406,0,0,0,2.808-1.626c-1.39.647-2.9,1.333-4.543,2.28" transform="translate(-107.532 -1.884)" fill="#fff6e6"/>
            <path id="路径_3874" data-name="路径 3874" d="M223.812,5.869a4.461,4.461,0,0,0-1.419-1.633c-1.145,1.1-2.125,2.645-3.371,3.934-.036.041-.089.084-.133.132,1.834-.992,3.481-1.722,4.923-2.433" transform="translate(-106.924 -1.025)" fill="#fff6e6"/>
            <path id="路径_3875" data-name="路径 3875" d="M214.535,48.871c.37.616.74,1.229,1.154,1.8a4.593,4.593,0,0,0,.566-.665,6.447,6.447,0,0,1-1.307-.977c-.346-.352-.719-.671-1.092-1a4.589,4.589,0,0,1,.68.838" transform="translate(-104.465 -11.62)" fill="#fff6e6"/>
            <path id="路径_3876" data-name="路径 3876" d="M12.171,48.069c.049-.151.092-.27.116-.349a22.471,22.471,0,0,1,1.025-2.825,19.105,19.105,0,0,0-1.481,2.729c.106.159.217.295.341.446" transform="translate(-5.779 -10.861)" fill="#fff6e6"/>
            <g id="组_620" data-name="组 620" opacity="0.6" style="mix-blend-mode: multiply;isolation: isolate">
              <g id="组_619" data-name="组 619">
                <g id="组_618" data-name="组 618" clip-path="url(#clip-path-24)">
                  <path id="路径_3877" data-name="路径 3877" d="M117.761,10.816c.126-3.153.316-6.917-3.463-8.2a26.367,26.367,0,0,0-5.3-.89A141.59,141.59,0,0,0,94.472.61c-18.3-.43-61.734-1.433-79.862.733-3.9.472-7.028.806-9.391,1.217a7.786,7.786,0,0,0-3.727,1.4A4.906,4.906,0,0,0,.06,7.23a13.382,13.382,0,0,0,.119,3.313,79.923,79.923,0,0,0,1.231,8.668c.618,3.3,1.369,6.429,2.035,9.416.3,1.379.636,2.71,1,4.022A20.077,20.077,0,0,0,5.5,35.791a5.109,5.109,0,0,0,3.875,3.2c1.775.241,4.2.2,8.147.324,8.231.261,16.564.561,24.824.733,11.079.238,45.741.516,56.842.574,2.038.009,3.7.061,5.141.087a11.635,11.635,0,0,0,3.415-.268,5.64,5.64,0,0,0,3.286-1.183A7.669,7.669,0,0,0,113,35.678q.795-2.6,1.37-5.258c.511-2.363.822-4.789,1.393-7.2.615-2.559,1.193-5.147,1.574-7.8a44.244,44.244,0,0,0,.421-4.6m-3.876,18.944c-.332,1.522-.667,3.045-1.038,4.543a11.165,11.165,0,0,1-1.664,4c-.974,1.33-2.747,1.627-4.214,1.75-1.953.167-4.15.051-7.223.025-10.666-.067-44.883-.309-55.518-.535-8.425-.174-16.911-.528-25.331-.671-2.3-.049-6.662-.069-7.846-.169-2.485-.218-3.468-.735-4.117-1.336a6.615,6.615,0,0,1-1.576-2.6A63.212,63.212,0,0,1,3.331,26.91c-.591-2.68-1.256-5.474-1.785-8.388C1.122,16.152.771,13.6.492,11.116A21.491,21.491,0,0,1,.3,8.275C.324,6.591.759,4.991,2.151,4.132A11.8,11.8,0,0,1,6.43,2.994c2.652-.395,6.146-.878,10.449-1.249,17.53-1.5,59.771-.87,77.6-.461,6.832.152,10.5.737,13.934,1.065a31.237,31.237,0,0,1,5.413.93c2.218.62,3.07,1.672,3.358,3.942a23.963,23.963,0,0,1-.074,5.524,160.448,160.448,0,0,1-3.227,17.014" transform="translate(0 0)" fill="#d47f02"/>
                </g>
              </g>
            </g>
          </g>
        </g>
        <g id="组_627" data-name="组 627" transform="translate(2.878 2.571)">
          <g id="蒙版组_1" data-name="蒙版组 1" transform="translate(0 0)" clip-path="url(#clip-path-25)">
            <rect id="矩形_260" data-name="矩形 260" width="110.767" height="34.022" transform="translate(0 0)" fill="url(#linear-gradient-2)"/>
          </g>
        </g>
        <g id="组_639" data-name="组 639" transform="translate(0 0)">
          <g id="组_638" data-name="组 638" clip-path="url(#clip-path)">
            <g id="组_632" data-name="组 632" transform="translate(2.877 2.571)" opacity="0.9" style="mix-blend-mode: multiply;isolation: isolate">
              <g id="组_631" data-name="组 631">
                <g id="组_630" data-name="组 630" clip-path="url(#clip-path-27)">
                  <g id="组_629" data-name="组 629" transform="translate(0 0)">
                    <g id="组_628" data-name="组 628" clip-path="url(#clip-path-28)">
                      <path id="路径_3921" data-name="路径 3921" d="M16.948,17.96l119.1-23.4L113.742,111.4l-119.1,23.4Z" transform="matrix(0.733, -0.68, 0.68, 0.733, -36.717, 13.625)" fill="url(#linear-gradient-3)"/>
                    </g>
                  </g>
                </g>
              </g>
            </g>
            <g id="组_637" data-name="组 637" transform="translate(6.812 21.896)" opacity="0.3" style="mix-blend-mode: multiply;isolation: isolate">
              <g id="组_636" data-name="组 636">
                <g id="组_635" data-name="组 635" clip-path="url(#clip-path-29)">
                  <g id="组_634" data-name="组 634" transform="translate(0 0)">
                    <g id="组_633" data-name="组 633" clip-path="url(#clip-path-30)">
                      <rect id="矩形_265" data-name="矩形 265" width="103.528" height="14.313" transform="translate(-0.907 -1.631)" fill="url(#radial-gradient)"/>
                    </g>
                  </g>
                </g>
              </g>
            </g>
          </g>
        </g>
        <path id="路径_4102" data-name="路径 4102" d="M190.979,22.485l-1.856,12.4s-.726,4.712-3.792,4.836-10.893,0-10.893,0,10.005-.744,10.893-1.86,1.937-1.24,2.824-3.844S190.979,22.485,190.979,22.485Z" transform="translate(-79.29 -3.639)" fill="#fff"/>
        <path id="路径_4114" data-name="路径 4114" d="M60.507,5.045c-8.591-.629-37.773,0-46.636,1.467s-7.364,4.61-7.091,8.172a97.746,97.746,0,0,0,2.182,13.2c.682,2.305-2.455-12.154.818-16.764S56.825,5.045,60.507,5.045Z" transform="translate(-2.416 -0.777)" fill="#fff"/>
      </g>
    </g>
    <text id="我的商品" transform="translate(354.5 273.472)" fill="#401a00" font-size="15" font-family="NotoSansHant-Bold, Noto Sans T Chinese" font-weight="700"><tspan x="-30" y="0">我的商品</tspan></text>
  </g>
</svg>
