<svg xmlns="http://www.w3.org/2000/svg" xmlns:xlink="http://www.w3.org/1999/xlink" width="120" height="48" viewBox="0 0 120 48">
  <defs>
    <clipPath id="clip-path">
      <rect id="矩形_271" data-name="矩形 271" width="120" height="48" fill="none"/>
    </clipPath>
    <clipPath id="clip-path-2">
      <path id="路径_3849" data-name="路径 3849" d="M14.611,1.354C10.7,1.83,7.583,2.169,5.22,2.584a7.726,7.726,0,0,0-3.727,1.41A4.968,4.968,0,0,0,.06,7.293a13.616,13.616,0,0,0,.119,3.342,81.207,81.207,0,0,0,1.231,8.741c.618,3.325,1.369,6.484,2.035,9.5.305,1.391.637,2.734,1,4.057A20.415,20.415,0,0,0,5.5,36.1a5.12,5.12,0,0,0,3.874,3.227c1.776.243,4.2.2,8.148.327,8.231.262,16.564.566,24.824.739,11.08.239,45.741.521,56.842.579,2.038.009,3.7.061,5.14.088a11.546,11.546,0,0,0,3.416-.271,5.62,5.62,0,0,0,3.286-1.193A7.752,7.752,0,0,0,113,35.983q.795-2.622,1.369-5.3c.511-2.383.822-4.83,1.393-7.263.615-2.581,1.193-5.193,1.574-7.868a44.923,44.923,0,0,0,.421-4.641c.126-3.18.316-6.977-3.463-8.268a26.159,26.159,0,0,0-5.3-.9A139.7,139.7,0,0,0,94.472.616C84.871.389,68.358,0,52.211,0,37.575,0,23.24.32,14.611,1.354" transform="translate(0 -0.005)" fill="none"/>
    </clipPath>
    <linearGradient id="linear-gradient" x1="-0.015" y1="0.712" x2="-0.011" y2="0.712" gradientUnits="objectBoundingBox">
      <stop offset="0" stop-color="#eac991"/>
      <stop offset="0.137" stop-color="#eac991"/>
      <stop offset="0.512" stop-color="#d5a76f"/>
      <stop offset="1" stop-color="#a14e01"/>
    </linearGradient>
    <clipPath id="clip-path-4">
      <rect id="矩形_237" data-name="矩形 237" width="107.034" height="32.243" fill="none"/>
    </clipPath>
    <clipPath id="clip-path-5">
      <rect id="矩形_238" data-name="矩形 238" width="106.372" height="8.553" fill="none"/>
    </clipPath>
    <clipPath id="clip-path-6">
      <rect id="矩形_239" data-name="矩形 239" width="13.403" height="7.209" fill="none"/>
    </clipPath>
    <clipPath id="clip-path-7">
      <rect id="矩形_240" data-name="矩形 240" width="20.653" height="6.13" fill="none"/>
    </clipPath>
    <clipPath id="clip-path-8">
      <rect id="矩形_241" data-name="矩形 241" width="7.981" height="5.151" fill="none"/>
    </clipPath>
    <clipPath id="clip-path-9">
      <rect id="矩形_242" data-name="矩形 242" width="8.369" height="26.625" fill="none"/>
    </clipPath>
    <clipPath id="clip-path-10">
      <rect id="矩形_243" data-name="矩形 243" width="6.264" height="5.219" fill="none"/>
    </clipPath>
    <clipPath id="clip-path-11">
      <rect id="矩形_244" data-name="矩形 244" width="5.547" height="4.343" fill="none"/>
    </clipPath>
    <clipPath id="clip-path-12">
      <rect id="矩形_245" data-name="矩形 245" width="4.867" height="4.117" fill="none"/>
    </clipPath>
    <clipPath id="clip-path-13">
      <rect id="矩形_246" data-name="矩形 246" width="4.016" height="6.338" fill="none"/>
    </clipPath>
    <clipPath id="clip-path-14">
      <rect id="矩形_247" data-name="矩形 247" width="8.064" height="7.239" fill="none"/>
    </clipPath>
    <clipPath id="clip-path-15">
      <rect id="矩形_248" data-name="矩形 248" width="7.775" height="3.899" fill="none"/>
    </clipPath>
    <clipPath id="clip-path-16">
      <rect id="矩形_249" data-name="矩形 249" width="10.1" height="7.467" fill="none"/>
    </clipPath>
    <clipPath id="clip-path-17">
      <rect id="矩形_250" data-name="矩形 250" width="44.035" height="7.462" fill="none"/>
    </clipPath>
    <clipPath id="clip-path-18">
      <rect id="矩形_251" data-name="矩形 251" width="38.522" height="20.49" fill="none"/>
    </clipPath>
    <clipPath id="clip-path-19">
      <rect id="矩形_252" data-name="矩形 252" width="6.588" height="7.332" fill="none"/>
    </clipPath>
    <clipPath id="clip-path-20">
      <rect id="矩形_253" data-name="矩形 253" width="2.574" height="7.337" fill="none"/>
    </clipPath>
    <clipPath id="clip-path-21">
      <rect id="矩形_254" data-name="矩形 254" width="7.074" height="7.693" fill="none"/>
    </clipPath>
    <clipPath id="clip-path-22">
      <rect id="矩形_256" data-name="矩形 256" width="117.582" height="37.985" fill="none"/>
    </clipPath>
    <clipPath id="clip-path-23">
      <rect id="矩形_255" data-name="矩形 255" width="5.376" height="6.299" fill="none"/>
    </clipPath>
    <clipPath id="clip-path-24">
      <rect id="矩形_257" data-name="矩形 257" width="117.812" height="41.067" fill="none"/>
    </clipPath>
    <clipPath id="clip-path-25">
      <path id="路径_3878" data-name="路径 3878" d="M14.751,5.827c-3.708.491-6.812,1.033-8.276,2.818-1.054,1.293-.937,2.836-.656,4.349.32,2.8.444,4.764.827,7.052.473,2.8.979,5.5,1.644,8.119.282,1.119.576,2.226.9,3.314a14.12,14.12,0,0,0,.97,2.769c.678,1.239,1.764,1.905,3.713,1.855A.251.251,0,0,0,14,36.059c2.133.163,6.018.07,8.857.233,9.211.528,42.127.664,51.4.909,9.019.228,18.219.685,27.121.422.994-.031,2.32-.007,3.6.018,1.2.023,2.353.047,3.146.022a4.68,4.68,0,0,0,3.289-1.183c.946-.869,1.249-2.562,1.506-3.719.858-3.86,1.58-7.8,2.068-11.814.255-2.125.52-4.118.752-6.262a32.8,32.8,0,0,0,.317-5.768c-.151-2.388-2.292-2.7-5.6-3.054-10.873-1.71-28.161-2.47-45.692-2.47-19.007,0-38.3.893-50.011,2.436" transform="translate(-5.625 -3.391)" fill="none" stroke="#fff" stroke-width="1"/>
    </clipPath>
    <linearGradient id="linear-gradient-2" x1="0.5" x2="0.518" y2="0.935" gradientUnits="objectBoundingBox">
      <stop offset="0" stop-color="#f8edd1"/>
      <stop offset="1" stop-color="#eaca92"/>
    </linearGradient>
    <clipPath id="clip-path-27">
      <rect id="矩形_262" data-name="矩形 262" width="110.467" height="34.311" fill="none"/>
    </clipPath>
    <clipPath id="clip-path-28">
      <path id="路径_3879" data-name="路径 3879" d="M114.985,20.946c.255-2.124.52-4.117.752-6.262a32.788,32.788,0,0,0,.317-5.768c-.151-2.388-2.292-2.7-5.6-3.054-22.662-3.565-73.189-3-95.7-.034-3.708.49-6.812,1.033-8.276,2.818-1.053,1.293-.937,2.836-.656,4.349.32,2.8.445,4.765.827,7.052.473,2.8.979,5.5,1.644,8.119.282,1.12.576,2.227.9,3.314a14.137,14.137,0,0,0,.97,2.769c.678,1.238,1.764,1.905,3.713,1.855A.258.258,0,0,0,14,36.059c2.133.163,6.018.071,8.857.233,9.211.528,42.127.664,51.4.909,9.02.228,18.22.685,27.122.422,1.927-.063,5.1.089,6.743.04a4.678,4.678,0,0,0,3.289-1.183c.946-.868,1.249-2.562,1.506-3.72.858-3.859,1.58-7.8,2.068-11.814m-2.36,11.037a10.522,10.522,0,0,1-1.212,3.665c-1.315,1.94-4.014,1.389-6.827,1.46-9.472.211-18.992-.062-28.443-.281-9.419-.224-42.441-.454-51.855-.862a100.059,100.059,0,0,0-10.562-.2,6.082,6.082,0,0,1-2.333-.577,3.469,3.469,0,0,1-1.277-1.773,43.429,43.429,0,0,1-1.9-6.818A116.839,116.839,0,0,1,6.54,14.817c.106.446-.926-4.733.647-6.216C9.062,6.83,13.539,6.509,17.974,5.984c13.453-1.565,51.272-.961,64.788-.976,7.181,0,14.551-.161,21.7.644,2.514.284,4.6.488,6.358.719,1.964.259,3.487.324,4.209,1.667.82,1.522.607,3.378.459,4.917-.272,2.7-.826,5.414-1.088,8.081a65.892,65.892,0,0,1-1.2,7.705c-.159.753-.311,1.979-.574,3.242" transform="translate(-5.625 -3.391)" fill="none"/>
    </clipPath>
    <linearGradient id="linear-gradient-3" x1="-0.096" y1="0.707" x2="-0.091" y2="0.707" gradientUnits="objectBoundingBox">
      <stop offset="0" stop-color="#fdf9e3"/>
      <stop offset="0.365" stop-color="#eac991"/>
      <stop offset="0.942" stop-color="#d47f02"/>
      <stop offset="1" stop-color="#d47f02"/>
    </linearGradient>
    <clipPath id="clip-path-29">
      <rect id="矩形_266" data-name="矩形 266" width="102.258" height="12.571" fill="none"/>
    </clipPath>
    <clipPath id="clip-path-30">
      <path id="路径_3880" data-name="路径 3880" d="M13.948,36.394c-1.538-5.6-.509-9.155,5.8-5.432,7.38,4.349,15.3,4.508,23.967,4.547,10.506.055,54.39,2.84,62.966-4.015,4.625-3.7,9.256-3.57,8.87,1.037-.449,5.4-2.79,8.794-10.43,8.882-20.433.261-66.731-.754-85.973-1.309-3.8-.107-4.454-1-5.2-3.71" transform="translate(-13.316 -28.883)" fill="none"/>
    </clipPath>
    <radialGradient id="radial-gradient" cx="0.484" cy="-3.138" r="8.324" gradientUnits="objectBoundingBox">
      <stop offset="0" stop-color="#fff"/>
      <stop offset="0.837" stop-color="#fff"/>
      <stop offset="0.942" stop-color="#d47f02"/>
      <stop offset="1" stop-color="#d47f02"/>
    </radialGradient>
  </defs>
  <g id="BTN_道具_Active" transform="translate(-24.5 -248.926)">
    <g id="BG" transform="translate(24.5 228.674)">
      <g id="TitleBG" transform="translate(0 20.252)">
        <g id="组_640" data-name="组 640" clip-path="url(#clip-path)">
          <g id="组_557" data-name="组 557" transform="translate(0 0.004)">
            <g id="组_556" data-name="组 556" clip-path="url(#clip-path-2)">
              <path id="路径_3920" data-name="路径 3920" d="M14.459,20.269,145.2-5.344,125.86,111.64-4.882,137.252Z" transform="translate(-35.566 2.397) rotate(-32.369)" fill="url(#linear-gradient)"/>
            </g>
          </g>
          <g id="组_622" data-name="组 622" transform="translate(0 0)">
            <g id="组_621" data-name="组 621" clip-path="url(#clip-path)">
              <g id="组_560" data-name="组 560" transform="translate(10.758 8.824)" opacity="0.5" style="mix-blend-mode: multiply;isolation: isolate">
                <g id="组_559" data-name="组 559">
                  <g id="组_558" data-name="组 558" clip-path="url(#clip-path-4)">
                    <path id="路径_3850" data-name="路径 3850" d="M128.05,11.545c-.655-.009-1.3,0-1.965.042-1.461.1-3.1.759-5.181.436a1.1,1.1,0,0,1-.3-.1c-.5,4.953-1.33,9.888-2.248,14.782-.483,2.567.317,7.187-3.334,8.4-6.947,2.288-16.883.706-24.252.638-14.874-.118-53.392-.032-68.311-.593-.362,2.236-1.356,4.368-1.425,6.528,0,.151,0,.315,0,.492,1.626.116,3.755.111,6.758.2,8.231.255,16.564.567,24.824.739,11.079.24,45.741.521,56.842.58,2.038.008,3.7.061,5.141.088a11.591,11.591,0,0,0,3.415-.271,5.616,5.616,0,0,0,3.286-1.194,7.74,7.74,0,0,0,1.974-3.609q.8-2.623,1.37-5.3c.51-2.383.821-4.83,1.392-7.263.616-2.582,1.193-5.193,1.575-7.868a44.938,44.938,0,0,0,.421-4.641c.029-.68.045-1.382.016-2.081" transform="translate(-21.031 -11.542)" fill="#d47f02"/>
                  </g>
                </g>
              </g>
              <g id="组_563" data-name="组 563" transform="translate(5.813 0.003)" opacity="0.2" style="mix-blend-mode: multiply;isolation: isolate">
                <g id="组_562" data-name="组 562">
                  <g id="组_561" data-name="组 561" clip-path="url(#clip-path-5)">
                    <path id="路径_3851" data-name="路径 3851" d="M14.275,8.558C33.38,6.208,76.45,6.8,95.687,6.551a144.6,144.6,0,0,1,17.341.455c.426.042.856.114,1.276.158.424-.707.872-1.418,1.393-2.128.712-.961,1.408-1.921,2.038-2.892-.933-.155-1.985-.274-3.183-.4A140.145,140.145,0,0,0,100.023.615C81.718.183,38.311-.822,20.161,1.354c-3.589.432-6.522.761-8.8,1.132.559,1.307,1.283,2.558,1.849,3.86.325.749.666,1.483,1.062,2.212" transform="translate(-11.363 -0.004)" fill="#d47f02"/>
                  </g>
                </g>
              </g>
              <g id="组_566" data-name="组 566" transform="translate(11.778 0.758)" opacity="0.2" style="mix-blend-mode: multiply;isolation: isolate">
                <g id="组_565" data-name="组 565">
                  <g id="组_564" data-name="组 564" clip-path="url(#clip-path-6)">
                    <path id="路径_3852" data-name="路径 3852" d="M36.428.992c-5.562.135-7.727.278-10.57.6q-1.5.166-2.833.324a27.134,27.134,0,0,0,1.9,6.29C27.858,7.877,30,7.66,35.715,7.5c.19-2.138.516-4.3.713-6.5" transform="translate(-23.025 -0.992)" fill="#d47f02"/>
                  </g>
                </g>
              </g>
              <g id="组_569" data-name="组 569" transform="translate(82.62 0.502)" opacity="0.2" style="mix-blend-mode: multiply;isolation: isolate">
                <g id="组_568" data-name="组 568">
                  <g id="组_567" data-name="组 567" clip-path="url(#clip-path-7)">
                    <path id="路径_3853" data-name="路径 3853" d="M182.174,1.354c-2.676-.239-4.861-.477-8.8-.586-1.819-.055-4.036-.087-6.5-.112a19.644,19.644,0,0,1-4.388,5.369c-.3.254-.621.509-.96.761,2.719-.031,5.261-.051,7.516-.082,3.645-.036,6.552-.08,8.149-.1,1.209-1.849,3.417-3.492,4.989-5.253" transform="translate(-161.521 -0.657)" fill="#d47f02"/>
                  </g>
                </g>
              </g>
              <g id="组_572" data-name="组 572" transform="translate(102.219 1.596)" opacity="0.2" style="mix-blend-mode: multiply;isolation: isolate">
                <g id="组_571" data-name="组 571">
                  <g id="组_570" data-name="组 570" clip-path="url(#clip-path-8)">
                    <path id="路径_3854" data-name="路径 3854" d="M207.816,2.364c-.386-.037-.779-.087-1.2-.13-.45-.048-.931-.09-1.425-.147-.651,1.583-2.748,2.836-4.408,4.164a10.957,10.957,0,0,0-.95.848q1.279.065,2.409.14a52.8,52.8,0,0,0,5.572-4.875" transform="translate(-199.836 -2.087)" fill="#d47f02"/>
                  </g>
                </g>
              </g>
              <g id="组_575" data-name="组 575" transform="translate(0 8.596)" opacity="0.2" style="mix-blend-mode: multiply;isolation: isolate">
                <g id="组_574" data-name="组 574">
                  <g id="组_573" data-name="组 573" clip-path="url(#clip-path-9)">
                    <path id="路径_3855" data-name="路径 3855" d="M8.369,33a8.315,8.315,0,0,1-.25-1.484c-.183-1.291-.284-2.611-.467-3.931-.626-4.427-.522-9.018-1.928-13.57C3.09,13.382,1.157,12.579,0,11.243A18.009,18.009,0,0,0,.179,13.28a81.251,81.251,0,0,0,1.23,8.742c.618,3.324,1.369,6.484,2.035,9.5.3,1.391.636,2.733,1,4.056.206.754.42,1.551.693,2.294A12.087,12.087,0,0,1,8.369,33" transform="translate(0 -11.243)" fill="#d47f02"/>
                  </g>
                </g>
              </g>
              <g id="组_578" data-name="组 578" transform="translate(0.22 11.106)" opacity="0.2" style="mix-blend-mode: multiply;isolation: isolate">
                <g id="组_577" data-name="组 577">
                  <g id="组_576" data-name="组 576" clip-path="url(#clip-path-10)">
                    <path id="路径_3856" data-name="路径 3856" d="M6.451,18c.08-.025.159-.05.242-.071-.14-.763-.3-1.532-.507-2.275-2.664-.39-4.491-.929-5.757-1.132.153,1.774.386,3.521.662,5.219C2.26,19.342,3.85,18.7,6.451,18" transform="translate(-0.429 -14.526)" fill="#d47f02"/>
                  </g>
                </g>
              </g>
              <g id="组_581" data-name="组 581" transform="translate(1.35 16.854)" opacity="0.2" style="mix-blend-mode: multiply;isolation: isolate">
                <g id="组_580" data-name="组 580">
                  <g id="组_579" data-name="组 579" clip-path="url(#clip-path-11)">
                    <path id="路径_3857" data-name="路径 3857" d="M8.185,22.72c-.02-.226-.046-.452-.074-.676a20.206,20.206,0,0,0-5.473,2.18c.017.118.04.235.059.34.12.616.234,1.222.357,1.823A41.516,41.516,0,0,1,8.185,22.72" transform="translate(-2.638 -22.044)" fill="#d47f02"/>
                  </g>
                </g>
              </g>
              <g id="组_584" data-name="组 584" transform="translate(2.212 19.306)" opacity="0.2" style="mix-blend-mode: multiply;isolation: isolate">
                <g id="组_583" data-name="组 583">
                  <g id="组_582" data-name="组 582" clip-path="url(#clip-path-12)">
                    <path id="路径_3858" data-name="路径 3858" d="M5.683,27.968a11.139,11.139,0,0,1,1.2-1.1A14.083,14.083,0,0,1,9.193,25.41c0-.05-.011-.109-.011-.159a10.931,10.931,0,0,0-4.856,4.03.236.236,0,0,1,.021.088c.056-.049.108-.115.171-.161a4.256,4.256,0,0,1,1.165-1.24" transform="translate(-4.325 -25.251)" fill="#d47f02"/>
                  </g>
                </g>
              </g>
              <g id="组_587" data-name="组 587" transform="translate(3.941 26.683)" opacity="0.2" style="mix-blend-mode: multiply;isolation: isolate">
                <g id="组_586" data-name="组 586">
                  <g id="组_585" data-name="组 585" clip-path="url(#clip-path-13)">
                    <path id="路径_3859" data-name="路径 3859" d="M8.234,41.238a14.311,14.311,0,0,1,3.487-5.465c-.034-.294-.064-.585-.1-.873a17.731,17.731,0,0,0-3.9,4.292c-.011.008-.015.022-.025.031.16.645.329,1.292.5,1.921.006.031.018.065.025.094" transform="translate(-7.705 -34.901)" fill="#d47f02"/>
                  </g>
                </g>
              </g>
              <g id="组_590" data-name="组 590" transform="translate(109.726 5.469)" opacity="0.5" style="mix-blend-mode: multiply;isolation: isolate">
                <g id="组_589" data-name="组 589">
                  <g id="组_588" data-name="组 588" clip-path="url(#clip-path-14)">
                    <path id="路径_3860" data-name="路径 3860" d="M222.067,14.3c.123.024.247.063.375.093.048-.6.086-1.189.1-1.8a13.647,13.647,0,0,0-.6-5.439c-1.9,1.081-3.983,2.359-6.685,3.778a6.9,6.9,0,0,0-.748,2.824,25.7,25.7,0,0,1,7.556.544" transform="translate(-214.511 -7.154)" fill="#d47f02"/>
                  </g>
                </g>
              </g>
              <g id="组_593" data-name="组 593" transform="translate(109.248 17.318)" opacity="0.3" style="mix-blend-mode: multiply;isolation: isolate">
                <g id="组_592" data-name="组 592">
                  <g id="组_591" data-name="组 591" clip-path="url(#clip-path-15)">
                    <path id="路径_3861" data-name="路径 3861" d="M214.055,22.746c-.094,1.383-.358,1.8-.478,3.167a31.444,31.444,0,0,1,7.024.636c.278-1.226.53-2.471.752-3.721-2.367-.46-4.35.145-7.3-.082" transform="translate(-213.577 -22.651)" fill="#d47f02"/>
                  </g>
                </g>
              </g>
              <g id="组_596" data-name="组 596" transform="translate(7.961 32.136)" opacity="0.3" style="mix-blend-mode: multiply;isolation: isolate">
                <g id="组_595" data-name="组 595">
                  <g id="组_594" data-name="组 594" clip-path="url(#clip-path-16)">
                    <path id="路径_3862" data-name="路径 3862" d="M24.387,45.158a13.99,13.99,0,0,1,1.037-2.411c.041-.06.13-.189.239-.338-3.893-.182-6.621-.524-8.541-.3-.084.244-.169.493-.256.732a32.737,32.737,0,0,0-1.127,5c-.064.313-.121.617-.177.924a4.407,4.407,0,0,0,1.411.462,56.5,56.5,0,0,0,5.978.28c.48-1.427.924-2.891,1.435-4.343" transform="translate(-15.563 -42.033)" fill="#d47f02"/>
                  </g>
                </g>
              </g>
              <g id="组_599" data-name="组 599" transform="translate(30.188 33.101)" opacity="0.5" style="mix-blend-mode: multiply;isolation: isolate">
                <g id="组_598" data-name="组 598">
                  <g id="组_597" data-name="组 597" clip-path="url(#clip-path-17)">
                    <path id="路径_3863" data-name="路径 3863" d="M101.1,43.854c-6.19-.174-35.9-.343-42.08-.558a9.373,9.373,0,0,1,1.352,7.032c3.155.095,6.778.184,10.8.256,2.758.057,29.1.115,31.88.174a15.113,15.113,0,0,1-1.955-6.9" transform="translate(-59.017 -43.295)" fill="#d47f02"/>
                  </g>
                </g>
              </g>
              <g id="组_602" data-name="组 602" transform="translate(77.547 20.577)" opacity="0.2" style="mix-blend-mode: multiply;isolation: isolate">
                <g id="组_601" data-name="组 601">
                  <g id="组_600" data-name="组 600" clip-path="url(#clip-path-18)">
                    <path id="路径_3864" data-name="路径 3864" d="M190.124,28.495c-2.358-.9-4.086-1.638-6.82-1.578-.032.4-.153,1.824-.186,2.22a42.37,42.37,0,0,1-1.058,7.817,3.826,3.826,0,0,1-1.849,2.448,12.866,12.866,0,0,1-5.248.861c-7.766.238-15.575.011-23.357-.125A15.36,15.36,0,0,0,153.468,47c6.584.118,13.188.264,19.774.3,2.038.009,3.7.062,5.14.088a11.545,11.545,0,0,0,3.415-.271,5.609,5.609,0,0,0,3.286-1.193,7.749,7.749,0,0,0,1.974-3.609q.795-2.623,1.37-5.3c.511-2.383.822-4.83,1.393-7.262.1-.421.2-.843.3-1.259" transform="translate(-151.602 -26.914)" fill="#d47f02"/>
                  </g>
                </g>
              </g>
              <g id="组_605" data-name="组 605" transform="translate(97.748 33.724)" opacity="0.1" style="mix-blend-mode: screen;isolation: isolate">
                <g id="组_604" data-name="组 604">
                  <g id="组_603" data-name="组 603" clip-path="url(#clip-path-19)">
                    <path id="路径_3865" data-name="路径 3865" d="M197.192,44.11c-.885.119-1.867.163-2.938.2-1.023.025-1.92.052-3.159.076.036,2.32.111,4.645.176,6.966h1.261c2.038.009,3.7.062,5.14.089h.01c-.16-2.4-.36-4.849-.491-7.333" transform="translate(-191.095 -44.11)" fill="#fdf9e3"/>
                  </g>
                </g>
              </g>
              <g id="组_608" data-name="组 608" transform="translate(106.841 33.631)" opacity="0.2" style="mix-blend-mode: screen;isolation: isolate">
                <g id="组_607" data-name="组 607">
                  <g id="组_606" data-name="组 606" clip-path="url(#clip-path-20)">
                    <path id="路径_3866" data-name="路径 3866" d="M210.679,47.85c-.475-1.276-1.019-2.548-1.656-3.861.192,2.451-.125,4.922-.152,7.337a7.5,7.5,0,0,0,.9-.183,10.4,10.4,0,0,0,1.674-.314,23.494,23.494,0,0,0-.767-2.979" transform="translate(-208.871 -43.989)" fill="#fdf9e3"/>
                  </g>
                </g>
              </g>
              <g id="组_611" data-name="组 611" transform="translate(108.024 24.859)" opacity="0.2" style="mix-blend-mode: screen;isolation: isolate">
                <g id="组_610" data-name="组 610">
                  <g id="组_609" data-name="组 609" clip-path="url(#clip-path-21)">
                    <path id="路径_3867" data-name="路径 3867" d="M218.259,34.449c-2.182-.791-3.8-1.7-6.205-1.933a43.729,43.729,0,0,1-.869,5.7,11.807,11.807,0,0,1,4.317,1.235q.771.351,1.6.76c.146-.615.3-1.243.433-1.872.275-1.283.5-2.583.726-3.888" transform="translate(-211.185 -32.515)" fill="#fdf9e3"/>
                  </g>
                </g>
              </g>
              <g id="组_617" data-name="组 617" transform="translate(0.179 2.783)" opacity="0.5" style="mix-blend-mode: screen;isolation: isolate">
                <g id="组_616" data-name="组 616">
                  <g id="组_615" data-name="组 615" clip-path="url(#clip-path-22)">
                    <path id="路径_3868" data-name="路径 3868" d="M4.43,10.061A8.393,8.393,0,0,1,5.544,8.5,32.335,32.335,0,0,1,3.337,4.039a5.079,5.079,0,0,0-1.674.9A4.373,4.373,0,0,0,.349,7.559,9.105,9.105,0,0,0,3.368,9.517c.34.176.686.364,1.062.544" transform="translate(-0.349 -3.734)" fill="#ffeed9"/>
                    <path id="路径_3869" data-name="路径 3869" d="M217.06,8.14c.194.414.423.826.633,1.242a59.138,59.138,0,0,1,6.1.031c-.13-2.375-.616-4.728-3.126-5.774a9.669,9.669,0,0,1-1.757,2.4c-.61.668-1.233,1.37-1.848,2.1" transform="translate(-106.209 -3.64)" fill="#ffdc7c"/>
                    <g id="组_614" data-name="组 614" transform="translate(106.827 31.686)" opacity="0.9" style="mix-blend-mode: screen;isolation: isolate">
                      <g id="组_613" data-name="组 613">
                        <g id="组_612" data-name="组 612" clip-path="url(#clip-path-23)">
                          <path id="路径_3870" data-name="路径 3870" d="M209.454,45.24c-.077.05-.167.123-.257.19a18.8,18.8,0,0,0,.55,2.872c.12,1.027.2,2.065.26,3.082a5.455,5.455,0,0,0,3.209-1.176,5.876,5.876,0,0,0,1.353-1.934c-1.605-1.122-3.151-2.034-4.9-3.19-.067.055-.138.1-.211.155" transform="translate(-209.194 -45.085)" fill="#ffdc7c"/>
                        </g>
                      </g>
                    </g>
                    <path id="路径_3871" data-name="路径 3871" d="M14.091,41.89a.3.3,0,0,1-.078.112,14.1,14.1,0,0,0-2.7,4.515,5.106,5.106,0,0,0,3.107,2.576c.21-2.171.384-4.483.389-6.845a7.648,7.648,0,0,1-.718-.359" transform="translate(-5.704 -12.646)" fill="#ffdc7c"/>
                  </g>
                </g>
              </g>
              <path id="路径_3872" data-name="路径 3872" d="M5.874,8.278C5.2,6.971,4.445,5.714,3.892,4.375a4.694,4.694,0,0,0-1.029.647c-.023.015-.041.04-.057.05A39.238,39.238,0,0,0,5.874,8.278" transform="translate(-1.371 -1.03)" fill="#fff6e6"/>
              <path id="路径_3873" data-name="路径 3873" d="M220.134,10.089c.608-.231,1.183-.452,1.735-.66a25.358,25.358,0,0,0,2.808-1.64c-1.39.653-2.9,1.344-4.543,2.3" transform="translate(-107.532 -1.834)" fill="#fff6e6"/>
              <path id="路径_3874" data-name="路径 3874" d="M223.812,5.883a4.488,4.488,0,0,0-1.419-1.647c-1.145,1.106-2.125,2.667-3.371,3.968-.036.041-.089.085-.133.133,1.834-1,3.481-1.737,4.923-2.454" transform="translate(-106.924 -0.997)" fill="#fff6e6"/>
              <path id="路径_3875" data-name="路径 3875" d="M214.535,48.879c.37.621.74,1.239,1.154,1.815a4.618,4.618,0,0,0,.566-.671,6.452,6.452,0,0,1-1.307-.985c-.346-.355-.719-.677-1.092-1a4.621,4.621,0,0,1,.68.846" transform="translate(-104.465 -11.31)" fill="#fff6e6"/>
              <path id="路径_3876" data-name="路径 3876" d="M12.171,48.1c.049-.152.092-.272.116-.352a22.789,22.789,0,0,1,1.025-2.849,19.321,19.321,0,0,0-1.481,2.752c.106.161.217.3.341.45" transform="translate(-5.779 -10.571)" fill="#fff6e6"/>
              <g id="组_620" data-name="组 620" opacity="0.6" style="mix-blend-mode: multiply;isolation: isolate">
                <g id="组_619" data-name="组 619">
                  <g id="组_618" data-name="组 618" clip-path="url(#clip-path-24)">
                    <path id="路径_3877" data-name="路径 3877" d="M117.761,10.908c.126-3.18.316-6.976-3.463-8.268a26.164,26.164,0,0,0-5.3-.9A140.418,140.418,0,0,0,94.472.615C76.173.181,32.739-.83,14.611,1.354c-3.9.476-7.028.813-9.391,1.228A7.748,7.748,0,0,0,1.493,3.992,4.968,4.968,0,0,0,.06,7.291a13.609,13.609,0,0,0,.119,3.341,81.249,81.249,0,0,0,1.231,8.742c.618,3.324,1.369,6.484,2.035,9.5.3,1.391.636,2.733,1,4.056A20.368,20.368,0,0,0,5.5,36.1a5.12,5.12,0,0,0,3.875,3.226c1.775.243,4.2.2,8.147.327,8.231.263,16.564.566,24.824.739,11.079.24,45.741.521,56.842.579,2.038.009,3.7.062,5.141.088a11.54,11.54,0,0,0,3.415-.271,5.61,5.61,0,0,0,3.286-1.193A7.753,7.753,0,0,0,113,35.982q.795-2.623,1.37-5.3c.511-2.383.822-4.83,1.393-7.263.615-2.581,1.193-5.191,1.574-7.866a44.991,44.991,0,0,0,.421-4.642m-3.876,19.105c-.332,1.535-.667,3.071-1.038,4.582a11.313,11.313,0,0,1-1.664,4.034c-.974,1.342-2.747,1.641-4.214,1.765-1.953.168-4.15.051-7.223.025-10.666-.068-44.883-.311-55.518-.54C35.8,39.7,27.316,39.348,18.9,39.2c-2.3-.05-6.662-.07-7.846-.17-2.485-.219-3.468-.741-4.117-1.347a6.682,6.682,0,0,1-1.576-2.622A64.191,64.191,0,0,1,3.331,27.14c-.591-2.7-1.256-5.521-1.785-8.46C1.122,16.289.771,13.716.492,11.21A21.856,21.856,0,0,1,.3,8.346c.022-1.7.457-3.312,1.849-4.178A11.722,11.722,0,0,1,6.43,3.019c2.652-.4,6.146-.885,10.449-1.26,17.53-1.51,59.771-.877,77.6-.465,6.832.153,10.5.743,13.934,1.074a31,31,0,0,1,5.413.938c2.218.625,3.07,1.686,3.358,3.976a24.372,24.372,0,0,1-.074,5.571,163.051,163.051,0,0,1-3.227,17.159" transform="translate(0 0)" fill="#d47f02"/>
                  </g>
                </g>
              </g>
            </g>
          </g>
          <g id="组_627" data-name="组 627" transform="translate(2.878 2.593)">
            <g id="蒙版组_1" data-name="蒙版组 1" transform="translate(0 0)" clip-path="url(#clip-path-25)">
              <rect id="矩形_260" data-name="矩形 260" width="110.767" height="34.311" transform="translate(0 0)" fill="url(#linear-gradient-2)"/>
            </g>
          </g>
          <g id="组_639" data-name="组 639" transform="translate(0 0)">
            <g id="组_638" data-name="组 638" clip-path="url(#clip-path)">
              <g id="组_632" data-name="组 632" transform="translate(2.877 2.593)" opacity="0.9" style="mix-blend-mode: multiply;isolation: isolate">
                <g id="组_631" data-name="组 631">
                  <g id="组_630" data-name="组 630" clip-path="url(#clip-path-27)">
                    <g id="组_629" data-name="组 629" transform="translate(0 0)">
                      <g id="组_628" data-name="组 628" clip-path="url(#clip-path-28)">
                        <path id="路径_3921" data-name="路径 3921" d="M17.485,18.529,137.157-5.487,114.263,111.987-5.409,136Z" transform="matrix(0.733, -0.68, 0.68, 0.733, -37.497, 13.703)" fill="url(#linear-gradient-3)"/>
                      </g>
                    </g>
                  </g>
                </g>
              </g>
              <g id="组_637" data-name="组 637" transform="translate(6.812 22.082)" opacity="0.3" style="mix-blend-mode: multiply;isolation: isolate">
                <g id="组_636" data-name="组 636">
                  <g id="组_635" data-name="组 635" clip-path="url(#clip-path-29)">
                    <g id="组_634" data-name="组 634" transform="translate(0 0)">
                      <g id="组_633" data-name="组 633" clip-path="url(#clip-path-30)">
                        <rect id="矩形_265" data-name="矩形 265" width="103.528" height="14.435" transform="translate(-0.907 -1.645)" fill="url(#radial-gradient)"/>
                      </g>
                    </g>
                  </g>
                </g>
              </g>
            </g>
          </g>
          <path id="路径_4102" data-name="路径 4102" d="M190.979,22.485l-1.856,12.5s-.726,4.752-3.792,4.877-10.893,0-10.893,0,10.005-.75,10.893-1.876,1.937-1.25,2.824-3.876S190.979,22.485,190.979,22.485Z" transform="translate(-79.29 -3.478)" fill="#fff"/>
          <path id="路径_4114" data-name="路径 4114" d="M60.507,5.047c-8.591-.634-37.773,0-46.636,1.479S6.507,11.175,6.78,14.768A99.349,99.349,0,0,0,8.962,28.082c.682,2.325-2.455-12.257.818-16.906S56.825,5.047,60.507,5.047Z" transform="translate(-2.416 -0.743)" fill="#fff"/>
        </g>
      </g>
    </g>
    <text id="道具" transform="translate(84.5 273.472)" fill="#401a00" font-size="15" font-family="NotoSansHant-Bold, Noto Sans T Chinese" font-weight="700"><tspan x="-15" y="0">道具</tspan></text>
  </g>
</svg>
