<svg xmlns="http://www.w3.org/2000/svg" xmlns:xlink="http://www.w3.org/1999/xlink" width="401.998" height="81.1" viewBox="0 0 401.998 81.1">
  <defs>
    <linearGradient id="linear-gradient" x1="0.5" x2="0.5" y2="1" gradientUnits="objectBoundingBox">
      <stop offset="0" stop-color="#e89832"/>
      <stop offset="1" stop-color="#8c3201"/>
    </linearGradient>
    <clipPath id="clip-path">
      <rect id="矩形_271" data-name="矩形 271" width="220" height="56.783" fill="none"/>
    </clipPath>
    <clipPath id="clip-path-2">
      <path id="路径_3849" data-name="路径 3849" d="M26.786,1.6c-7.167.563-12.884.963-17.217,1.454A19.316,19.316,0,0,0,2.736,4.723,5.223,5.223,0,0,0,.11,8.626a10.476,10.476,0,0,0,.218,3.953A64.608,64.608,0,0,0,2.584,22.92c1.133,3.933,2.509,7.67,3.73,11.234.56,1.646,1.168,3.234,1.834,4.8a18.975,18.975,0,0,0,1.93,3.749,9.4,9.4,0,0,0,7.1,3.818c3.256.288,7.7.241,14.938.387,15.091.31,30.367.669,45.51.875,20.313.283,83.858.616,104.211.685,3.737.011,6.779.072,9.424.1a32.515,32.515,0,0,0,6.262-.32,14.185,14.185,0,0,0,6.024-1.412,9.021,9.021,0,0,0,3.62-4.271,56.005,56.005,0,0,0,2.51-6.272c.937-2.819,1.507-5.713,2.555-8.592a71.653,71.653,0,0,0,2.886-9.308,34.913,34.913,0,0,0,.773-5.49c.231-3.762.58-8.254-6.35-9.781a72.328,72.328,0,0,0-9.709-1.061C193.439,1.626,186.421.927,173.2.728,155.6.459,125.322,0,95.719,0,68.886,0,42.607.378,26.786,1.6" transform="translate(0 -0.005)" fill="none"/>
    </clipPath>
    <linearGradient id="linear-gradient-2" x1="-0.015" y1="0.712" x2="-0.011" y2="0.712" gradientUnits="objectBoundingBox">
      <stop offset="0" stop-color="#eac991"/>
      <stop offset="0.137" stop-color="#eac991"/>
      <stop offset="0.512" stop-color="#d5a76f"/>
      <stop offset="1" stop-color="#a14e01"/>
    </linearGradient>
    <clipPath id="clip-path-4">
      <rect id="矩形_237" data-name="矩形 237" width="196.229" height="38.143" fill="none"/>
    </clipPath>
    <clipPath id="clip-path-5">
      <rect id="矩形_238" data-name="矩形 238" width="195.015" height="10.119" fill="none"/>
    </clipPath>
    <clipPath id="clip-path-6">
      <rect id="矩形_239" data-name="矩形 239" width="24.571" height="8.529" fill="none"/>
    </clipPath>
    <clipPath id="clip-path-7">
      <rect id="矩形_240" data-name="矩形 240" width="37.865" height="7.252" fill="none"/>
    </clipPath>
    <clipPath id="clip-path-8">
      <rect id="矩形_241" data-name="矩形 241" width="14.631" height="6.094" fill="none"/>
    </clipPath>
    <clipPath id="clip-path-9">
      <rect id="矩形_242" data-name="矩形 242" width="15.344" height="31.497" fill="none"/>
    </clipPath>
    <clipPath id="clip-path-10">
      <rect id="矩形_243" data-name="矩形 243" width="11.483" height="6.174" fill="none"/>
    </clipPath>
    <clipPath id="clip-path-11">
      <rect id="矩形_244" data-name="矩形 244" width="10.17" height="5.137" fill="none"/>
    </clipPath>
    <clipPath id="clip-path-12">
      <rect id="矩形_245" data-name="矩形 245" width="8.924" height="4.871" fill="none"/>
    </clipPath>
    <clipPath id="clip-path-13">
      <rect id="矩形_246" data-name="矩形 246" width="7.363" height="7.497" fill="none"/>
    </clipPath>
    <clipPath id="clip-path-14">
      <rect id="矩形_247" data-name="矩形 247" width="14.783" height="8.564" fill="none"/>
    </clipPath>
    <clipPath id="clip-path-15">
      <rect id="矩形_248" data-name="矩形 248" width="14.254" height="4.613" fill="none"/>
    </clipPath>
    <clipPath id="clip-path-16">
      <rect id="矩形_249" data-name="矩形 249" width="18.517" height="8.833" fill="none"/>
    </clipPath>
    <clipPath id="clip-path-17">
      <rect id="矩形_250" data-name="矩形 250" width="80.731" height="8.828" fill="none"/>
    </clipPath>
    <clipPath id="clip-path-18">
      <rect id="矩形_251" data-name="矩形 251" width="70.623" height="24.24" fill="none"/>
    </clipPath>
    <clipPath id="clip-path-19">
      <rect id="矩形_252" data-name="矩形 252" width="12.079" height="8.674" fill="none"/>
    </clipPath>
    <clipPath id="clip-path-20">
      <rect id="矩形_253" data-name="矩形 253" width="4.72" height="8.68" fill="none"/>
    </clipPath>
    <clipPath id="clip-path-21">
      <rect id="矩形_254" data-name="矩形 254" width="12.969" height="9.101" fill="none"/>
    </clipPath>
    <clipPath id="clip-path-22">
      <rect id="矩形_256" data-name="矩形 256" width="215.567" height="44.935" fill="none"/>
    </clipPath>
    <clipPath id="clip-path-23">
      <rect id="矩形_255" data-name="矩形 255" width="9.855" height="7.452" fill="none"/>
    </clipPath>
    <clipPath id="clip-path-24">
      <rect id="矩形_257" data-name="矩形 257" width="215.988" height="48.581" fill="none"/>
    </clipPath>
    <clipPath id="clip-path-25">
      <path id="路径_3878" data-name="路径 3878" d="M22.356,6.273c-6.8.581-12.489,1.222-15.172,3.334-1.932,1.529-1.717,3.355-1.2,5.145.586,3.308.814,5.636,1.516,8.342a84.4,84.4,0,0,0,3.014,9.6c.518,1.324,1.056,2.634,1.647,3.92a13.371,13.371,0,0,0,1.778,3.276c1.243,1.465,3.234,2.254,6.806,2.194a.639.639,0,0,0,.233-.052c3.911.193,11.033.083,16.238.276,16.888.624,77.234.786,94.239,1.075,16.535.27,33.4.81,49.722.5,1.822-.037,4.254-.008,6.594.021,2.2.027,4.314.055,5.768.026a11.73,11.73,0,0,0,6.029-1.4c1.735-1.027,2.289-3.031,2.761-4.4a99.623,99.623,0,0,0,3.791-13.976c.467-2.513.954-4.871,1.379-7.408a25.266,25.266,0,0,0,.58-6.824c-.277-2.825-4.2-3.2-10.265-3.613-19.934-2.023-51.628-2.922-83.769-2.922-34.846,0-70.215,1.056-91.688,2.882" transform="translate(-5.625 -3.391)" fill="none" stroke="#fff" stroke-width="1"/>
    </clipPath>
    <linearGradient id="linear-gradient-3" x1="0.5" x2="0.518" y2="0.935" gradientUnits="objectBoundingBox">
      <stop offset="0" stop-color="#f8edd1"/>
      <stop offset="1" stop-color="#eaca92"/>
    </linearGradient>
    <clipPath id="clip-path-27">
      <rect id="矩形_262" data-name="矩形 262" width="202.522" height="40.589" fill="none"/>
    </clipPath>
    <clipPath id="clip-path-28">
      <path id="路径_3879" data-name="路径 3879" d="M206.118,24.158c.467-2.513.953-4.87,1.379-7.408a25.253,25.253,0,0,0,.58-6.823c-.277-2.825-4.2-3.2-10.265-3.613C156.266,2.1,63.632,2.764,22.356,6.273c-6.8.58-12.489,1.222-15.172,3.334-1.931,1.529-1.718,3.355-1.2,5.144.586,3.308.815,5.636,1.516,8.342a84.282,84.282,0,0,0,3.014,9.6c.518,1.325,1.056,2.635,1.647,3.921a13.387,13.387,0,0,0,1.778,3.276c1.243,1.464,3.234,2.254,6.806,2.194a.658.658,0,0,0,.233-.052c3.911.193,11.033.084,16.239.276,16.888.624,77.233.786,94.237,1.075,16.536.27,33.4.81,49.723.5,3.534-.074,9.359.106,12.363.047a11.723,11.723,0,0,0,6.029-1.4c1.734-1.027,2.289-3.031,2.761-4.4a99.556,99.556,0,0,0,3.791-13.976m-4.326,13.056a9.811,9.811,0,0,1-2.223,4.336c-2.411,2.3-7.359,1.643-12.516,1.727-17.366.25-34.819-.073-52.146-.333-17.267-.265-77.809-.537-95.067-1.019-8.924-.247-14.969-.468-19.364-.233a16.291,16.291,0,0,1-4.277-.683,4.745,4.745,0,0,1-2.342-2.1,38.351,38.351,0,0,1-3.48-8.066C8.859,26.519,8.16,21.631,7.3,16.908c.2.527-1.7-5.6,1.186-7.353,3.437-2.1,11.644-2.475,19.776-3.1,24.664-1.851,94-1.137,118.778-1.155,13.165,0,26.676-.19,39.781.762,4.609.336,8.442.577,11.656.85,3.6.307,6.393.383,7.717,1.972,1.5,1.8,1.112,4,.842,5.816-.5,3.192-1.514,6.4-1.995,9.56a52.873,52.873,0,0,1-2.2,9.115c-.292.891-.57,2.342-1.052,3.836" transform="translate(-5.625 -3.391)" fill="none"/>
    </clipPath>
    <linearGradient id="linear-gradient-4" x1="-0.096" y1="0.707" x2="-0.091" y2="0.707" gradientUnits="objectBoundingBox">
      <stop offset="0" stop-color="#fdf9e3"/>
      <stop offset="0.365" stop-color="#eac991"/>
      <stop offset="0.942" stop-color="#d47f02"/>
      <stop offset="1" stop-color="#d47f02"/>
    </linearGradient>
    <clipPath id="clip-path-29">
      <rect id="矩形_266" data-name="矩形 266" width="187.474" height="14.871" fill="none"/>
    </clipPath>
    <clipPath id="clip-path-30">
      <path id="路径_3880" data-name="路径 3880" d="M14.474,37.768c-2.82-6.62-.934-10.831,10.637-6.426,13.53,5.145,28.056,5.333,43.939,5.38,19.261.065,99.716,3.36,115.437-4.75,8.479-4.373,16.969-4.224,16.262,1.226-.823,6.384-5.116,10.4-19.121,10.507-37.46.308-122.341-.892-157.618-1.548-6.959-.127-8.165-1.18-9.535-4.388" transform="translate(-13.316 -28.883)" fill="none"/>
    </clipPath>
    <radialGradient id="radial-gradient" cx="0.484" cy="-3.138" r="8.324" gradientUnits="objectBoundingBox">
      <stop offset="0" stop-color="#fff"/>
      <stop offset="0.837" stop-color="#fff"/>
      <stop offset="0.942" stop-color="#d47f02"/>
      <stop offset="1" stop-color="#d47f02"/>
    </radialGradient>
    <clipPath id="clip-path-31">
      <rect id="矩形_496" data-name="矩形 496" width="181.377" height="24.317" transform="translate(0 0)" fill="url(#linear-gradient)"/>
    </clipPath>
  </defs>
  <g id="Title_尋寶中" transform="translate(54.499 -186.683)">
    <g id="TitleBG" transform="translate(36 211)">
      <g id="Line" transform="translate(-90.5 22.33)">
        <path id="路径_4104" data-name="路径 4104" d="M92.111,2.625l94.623.17V3.43l-94.623.232Z" transform="translate(208.889)" fill="#bc7d2d"/>
        <g id="组_1104" data-name="组 1104" transform="translate(0 0)">
          <g id="组_1106" data-name="组 1106">
            <path id="路径_4105" data-name="路径 4105" d="M173.4,3.1c5.427.031,5.735,3.652,7.544,3.049,1.809-.619,2.561-2.121,7.818-2.538,5.29-.4,3.993-.511,3.993-.511s1.3-.093-3.993-.511c-5.257-.4-6.009-1.9-7.818-2.522s-2.118,3-7.544,3.033" transform="translate(209.105 0)" fill="#bc7d2d" fill-rule="evenodd"/>
            <path id="路径_4106" data-name="路径 4106" d="M174.26,1.959c-1.434,0-2.594.542-2.594,1.176,0,.65,1.16,1.192,2.594,1.192s2.594-.542,2.594-1.192c0-.634-1.16-1.176-2.594-1.176" transform="translate(207.015 0)" fill="#bc7d2d" fill-rule="evenodd"/>
            <path id="路径_4107" data-name="路径 4107" d="M171.526,2.176c-1.2,0-2.151.433-2.151.959,0,.542.955.975,2.151.975s2.151-.433,2.151-.975c0-.526-.955-.959-2.151-.959" transform="translate(204.252 0)" fill="#bc7d2d" fill-rule="evenodd"/>
            <path id="路径_4108" data-name="路径 4108" d="M169.069,2.439c-.854,0-1.535.325-1.535.7,0,.387.682.712,1.535.712s1.571-.325,1.571-.712c0-.371-.717-.7-1.571-.7" transform="translate(202.032 0)" fill="#bc7d2d" fill-rule="evenodd"/>
            <path id="路径_4109" data-name="路径 4109" d="M88.309,2.625l-81.931.17V3.43l81.931.232Z" transform="translate(7.691 0)" fill="#bc7d2d"/>
            <path id="路径_4110" data-name="路径 4110" d="M19.462,3.1c-5.393.031-5.7,3.652-7.509,3.049-1.811-.619-2.561-2.121-7.818-2.538C-1.156,3.212.141,3.1.141,3.1s-1.3-.093,3.995-.511c5.257-.4,6.007-1.9,7.818-2.522s2.115,3,7.509,3.033" transform="translate(0 0)" fill="#bc7d2d" fill-rule="evenodd"/>
            <path id="路径_4111" data-name="路径 4111" d="M10.813,1.959c-1.434,0-2.594.542-2.594,1.176,0,.65,1.16,1.192,2.594,1.192s2.594-.542,2.594-1.192c0-.634-1.16-1.176-2.594-1.176" transform="translate(9.911 0)" fill="#bc7d2d" fill-rule="evenodd"/>
            <path id="路径_4112" data-name="路径 4112" d="M13.063,2.176c-1.2,0-2.151.433-2.151.959,0,.542.955.975,2.151.975,1.16,0,2.115-.433,2.115-.975,0-.526-.955-.959-2.115-.959" transform="translate(13.159 0)" fill="#bc7d2d" fill-rule="evenodd"/>
            <path id="路径_4113" data-name="路径 4113" d="M14.83,2.439c-.854,0-1.535.325-1.535.7,0,.387.682.712,1.535.712S16.4,3.522,16.4,3.135c0-.371-.717-.7-1.571-.7" transform="translate(16.033 0)" fill="#bc7d2d" fill-rule="evenodd"/>
          </g>
        </g>
      </g>
      <g id="组_640" data-name="组 640" clip-path="url(#clip-path)">
        <g id="组_557" data-name="组 557" transform="translate(0 0.005)">
          <g id="组_556" data-name="组 556" clip-path="url(#clip-path-2)">
            <path id="路径_3920" data-name="路径 3920" d="M0,0,207.79,3.375l2.549,154.507L2.549,154.507Z" transform="translate(-22.921 13.929) rotate(-32.369)" fill="url(#linear-gradient-2)"/>
          </g>
        </g>
        <g id="组_622" data-name="组 622" transform="translate(0 0)">
          <g id="组_621" data-name="组 621" clip-path="url(#clip-path)">
            <g id="组_560" data-name="组 560" transform="translate(19.723 10.439)" opacity="0.5" style="mix-blend-mode: multiply;isolation: isolate">
              <g id="组_559" data-name="组 559">
                <g id="组_558" data-name="组 558" clip-path="url(#clip-path-4)">
                  <path id="路径_3850" data-name="路径 3850" d="M217.232,11.546c-1.2-.011-2.39,0-3.6.05-2.679.117-5.689.9-9.5.516a2.849,2.849,0,0,1-.549-.116,143.143,143.143,0,0,1-4.121,17.487c-.886,3.036.58,8.5-6.112,9.932-12.736,2.707-30.951.836-44.463.755-27.269-.139-97.886-.038-125.237-.7-.664,2.645-2.486,5.167-2.612,7.722-.008.178-.008.373,0,.582,2.98.137,6.883.131,12.39.236,15.091.3,30.367.67,45.51.875,20.312.284,83.858.617,104.211.686,3.737.01,6.778.072,9.425.1a32.64,32.64,0,0,0,6.261-.32,14.173,14.173,0,0,0,6.025-1.413,9.007,9.007,0,0,0,3.619-4.27A56.153,56.153,0,0,0,210.99,37.4c.936-2.819,1.506-5.713,2.553-8.592A71.7,71.7,0,0,0,216.43,19.5a34.93,34.93,0,0,0,.773-5.49,19.207,19.207,0,0,0,.029-2.462" transform="translate(-21.031 -11.542)" fill="#d47f02"/>
                </g>
              </g>
            </g>
            <g id="组_563" data-name="组 563" transform="translate(10.656 0.004)" opacity="0.2" style="mix-blend-mode: multiply;isolation: isolate">
              <g id="组_562" data-name="组 562">
                <g id="组_561" data-name="组 561" clip-path="url(#clip-path-5)">
                  <path id="路径_3851" data-name="路径 3851" d="M16.7,10.123C51.727,7.343,130.69,8.045,165.957,7.749c10.7-.08,21.273-.2,31.792.538.781.05,1.569.135,2.34.187a35.176,35.176,0,0,1,2.554-2.518c1.305-1.137,2.581-2.273,3.737-3.421-1.711-.184-3.639-.325-5.836-.473-6.4-.436-13.415-1.135-26.637-1.335C140.347.216,60.768-.973,27.493,1.6c-6.579.511-11.957.9-16.13,1.339,1.025,1.547,2.353,3.026,3.39,4.566A29.786,29.786,0,0,0,16.7,10.123" transform="translate(-11.363 -0.004)" fill="#d47f02"/>
                </g>
              </g>
            </g>
            <g id="组_566" data-name="组 566" transform="translate(21.593 0.897)" opacity="0.2" style="mix-blend-mode: multiply;isolation: isolate">
              <g id="组_565" data-name="组 565">
                <g id="组_564" data-name="组 564" clip-path="url(#clip-path-6)">
                  <path id="路径_3852" data-name="路径 3852" d="M47.6.992c-10.2.16-14.167.328-19.378.7q-2.75.2-5.193.383c.981,2.508,1.563,5.111,3.48,7.441,5.381-.383,9.307-.64,19.784-.834.348-2.53.945-5.09,1.307-7.695" transform="translate(-23.026 -0.992)" fill="#d47f02"/>
                </g>
              </g>
            </g>
            <g id="组_569" data-name="组 569" transform="translate(151.471 0.594)" opacity="0.2" style="mix-blend-mode: multiply;isolation: isolate">
              <g id="组_568" data-name="组 568">
                <g id="组_567" data-name="组 567" clip-path="url(#clip-path-7)">
                  <path id="路径_3853" data-name="路径 3853" d="M199.386,1.482C194.48,1.2,190.474.917,183.249.789c-3.335-.065-7.4-.1-11.923-.132a29.061,29.061,0,0,1-8.045,6.351c-.542.3-1.138.6-1.76.9,4.985-.036,9.646-.061,13.779-.1,6.682-.043,12.012-.095,14.94-.115,2.216-2.188,6.265-4.131,9.146-6.214" transform="translate(-161.521 -0.657)" fill="#d47f02"/>
                </g>
              </g>
            </g>
            <g id="组_572" data-name="组 572" transform="translate(187.402 1.888)" opacity="0.2" style="mix-blend-mode: multiply;isolation: isolate">
              <g id="组_571" data-name="组 571">
                <g id="组_570" data-name="组 570" clip-path="url(#clip-path-8)">
                  <path id="路径_3854" data-name="路径 3854" d="M214.467,2.414c-.708-.044-1.428-.1-2.2-.154-.825-.057-1.708-.107-2.613-.174-1.194,1.873-5.038,3.355-8.081,4.926a19.85,19.85,0,0,0-1.741,1q2.345.077,4.416.166a96.7,96.7,0,0,0,10.216-5.767" transform="translate(-199.836 -2.087)" fill="#d47f02"/>
                </g>
              </g>
            </g>
            <g id="组_575" data-name="组 575" transform="translate(0.001 10.169)" opacity="0.2" style="mix-blend-mode: multiply;isolation: isolate">
              <g id="组_574" data-name="组 574">
                <g id="组_573" data-name="组 573" clip-path="url(#clip-path-9)">
                  <path id="路径_3855" data-name="路径 3855" d="M15.344,36.983a6.728,6.728,0,0,1-.459-1.756c-.336-1.528-.521-3.089-.855-4.651-1.147-5.238-.957-10.668-3.535-16.053C5.664,13.774,2.12,12.824,0,11.243a13.983,13.983,0,0,0,.327,2.409A64.639,64.639,0,0,0,2.583,23.994c1.134,3.932,2.509,7.67,3.731,11.234.559,1.645,1.167,3.233,1.834,4.8a25.868,25.868,0,0,0,1.27,2.714,15.554,15.554,0,0,1,5.926-5.757" transform="translate(-0.001 -11.244)" fill="#d47f02"/>
                </g>
              </g>
            </g>
            <g id="组_578" data-name="组 578" transform="translate(0.403 13.138)" opacity="0.2" style="mix-blend-mode: multiply;isolation: isolate">
              <g id="组_577" data-name="组 577">
                <g id="组_576" data-name="组 576" clip-path="url(#clip-path-10)">
                  <path id="路径_3856" data-name="路径 3856" d="M11.469,18.64c.146-.03.291-.06.444-.084a22.334,22.334,0,0,0-.929-2.692C6.1,15.4,2.75,14.766.429,14.526A55.675,55.675,0,0,0,1.642,20.7c2.143-.477,5.058-1.241,9.826-2.059" transform="translate(-0.429 -14.526)" fill="#d47f02"/>
                </g>
              </g>
            </g>
            <g id="组_581" data-name="组 581" transform="translate(2.474 19.938)" opacity="0.2" style="mix-blend-mode: multiply;isolation: isolate">
              <g id="组_580" data-name="组 580">
                <g id="组_579" data-name="组 579" clip-path="url(#clip-path-11)">
                  <path id="路径_3857" data-name="路径 3857" d="M12.808,22.844c-.038-.267-.083-.535-.136-.8A50.2,50.2,0,0,0,2.638,24.623c.032.139.073.279.109.4.22.729.43,1.446.654,2.156a84.367,84.367,0,0,1,9.408-4.339" transform="translate(-2.638 -22.045)" fill="#d47f02"/>
                </g>
              </g>
            </g>
            <g id="组_584" data-name="组 584" transform="translate(4.056 22.838)" opacity="0.2" style="mix-blend-mode: multiply;isolation: isolate">
              <g id="组_583" data-name="组 583">
                <g id="组_582" data-name="组 582" clip-path="url(#clip-path-12)">
                  <path id="路径_3858" data-name="路径 3858" d="M6.814,28.465a19.79,19.79,0,0,1,2.193-1.3,30.407,30.407,0,0,1,4.242-1.722c0-.06-.021-.128-.021-.188-4.915,1.479-7.257,3.176-8.9,4.767a.2.2,0,0,1,.038.1c.1-.058.2-.136.314-.19a6.9,6.9,0,0,1,2.136-1.467" transform="translate(-4.325 -25.251)" fill="#d47f02"/>
                </g>
              </g>
            </g>
            <g id="组_587" data-name="组 587" transform="translate(7.225 31.565)" opacity="0.2" style="mix-blend-mode: multiply;isolation: isolate">
              <g id="组_586" data-name="组 586">
                <g id="组_585" data-name="组 585" clip-path="url(#clip-path-13)">
                  <path id="路径_3859" data-name="路径 3859" d="M8.675,42.4a17.991,17.991,0,0,1,6.393-6.465c-.063-.348-.117-.692-.175-1.033a27.907,27.907,0,0,0-7.141,5.077c-.021.009-.027.026-.046.037.294.763.6,1.528.924,2.272.01.036.034.077.046.111" transform="translate(-7.705 -34.901)" fill="#d47f02"/>
                </g>
              </g>
            </g>
            <g id="组_590" data-name="组 590" transform="translate(201.164 6.47)" opacity="0.5" style="mix-blend-mode: multiply;isolation: isolate">
              <g id="组_589" data-name="组 589">
                <g id="组_588" data-name="组 588" clip-path="url(#clip-path-14)">
                  <path id="路径_3860" data-name="路径 3860" d="M228.364,15.608c.226.028.452.074.687.11.087-.707.158-1.406.19-2.13a10.828,10.828,0,0,0-1.1-6.434c-3.484,1.279-7.3,2.791-12.255,4.47a6.071,6.071,0,0,0-1.372,3.341,72.419,72.419,0,0,1,13.853.643" transform="translate(-214.511 -7.154)" fill="#d47f02"/>
                </g>
              </g>
            </g>
            <g id="组_593" data-name="组 593" transform="translate(200.289 20.486)" opacity="0.3" style="mix-blend-mode: multiply;isolation: isolate">
              <g id="组_592" data-name="组 592">
                <g id="组_591" data-name="组 591" clip-path="url(#clip-path-15)">
                  <path id="路径_3861" data-name="路径 3861" d="M214.453,22.764c-.172,1.636-.656,2.125-.876,3.746a88.514,88.514,0,0,1,12.877.752c.509-1.45.972-2.923,1.379-4.4-4.34-.544-7.975.172-13.379-.1" transform="translate(-213.578 -22.651)" fill="#d47f02"/>
                </g>
              </g>
            </g>
            <g id="组_596" data-name="组 596" transform="translate(14.595 38.016)" opacity="0.3" style="mix-blend-mode: multiply;isolation: isolate">
              <g id="组_595" data-name="组 595">
                <g id="组_594" data-name="组 594" clip-path="url(#clip-path-16)">
                  <path id="路径_3862" data-name="路径 3862" d="M31.741,45.729a14.375,14.375,0,0,1,1.9-2.853c.076-.071.239-.223.438-.4-7.136-.215-12.139-.62-15.658-.358-.155.289-.31.583-.469.866a27.6,27.6,0,0,0-2.066,5.91c-.117.37-.221.73-.324,1.093a11.421,11.421,0,0,0,2.587.546c2.6.236,6,.268,10.96.331.88-1.688,1.695-3.421,2.63-5.137" transform="translate(-15.563 -42.033)" fill="#d47f02"/>
                </g>
              </g>
            </g>
            <g id="组_599" data-name="组 599" transform="translate(55.346 39.158)" opacity="0.5" style="mix-blend-mode: multiply;isolation: isolate">
              <g id="组_598" data-name="组 598">
                <g id="组_597" data-name="组 597" clip-path="url(#clip-path-17)">
                  <path id="路径_3863" data-name="路径 3863" d="M136.164,43.956c-11.349-.205-65.809-.406-77.147-.66,2.692,2.747,3.312,5.543,2.479,8.319,5.783.112,12.426.218,19.806.3,5.057.067,53.35.136,58.447.205-2.1-2.755-3.7-5.483-3.584-8.167" transform="translate(-59.018 -43.295)" fill="#d47f02"/>
                </g>
              </g>
            </g>
            <g id="组_602" data-name="组 602" transform="translate(142.169 24.342)" opacity="0.2" style="mix-blend-mode: multiply;isolation: isolate">
              <g id="组_601" data-name="组 601">
                <g id="组_600" data-name="组 600" clip-path="url(#clip-path-18)">
                  <path id="路径_3864" data-name="路径 3864" d="M222.225,28.784c-4.323-1.065-7.491-1.938-12.5-1.867-.059.477-.28,2.158-.341,2.626-.411,3.074-.641,6.272-1.939,9.248a5.359,5.359,0,0,1-3.39,2.9c-2.539.823-5.754.936-9.621,1.018-14.238.281-28.553.014-42.821-.148-.124,2.677,1.4,5.383,3.413,8.118,12.07.139,24.178.312,36.252.36,3.737.011,6.778.073,9.424.1a32.509,32.509,0,0,0,6.262-.32,14.155,14.155,0,0,0,6.024-1.412,9.018,9.018,0,0,0,3.62-4.27,56.271,56.271,0,0,0,2.511-6.273c.937-2.819,1.506-5.713,2.554-8.591.192-.5.362-1,.557-1.49" transform="translate(-151.602 -26.914)" fill="#d47f02"/>
                </g>
              </g>
            </g>
            <g id="组_605" data-name="组 605" transform="translate(179.205 39.895)" opacity="0.1" style="mix-blend-mode: screen;isolation: isolate">
              <g id="组_604" data-name="组 604">
                <g id="组_603" data-name="组 603" clip-path="url(#clip-path-19)">
                  <path id="路径_3865" data-name="路径 3865" d="M202.272,44.11c-1.623.141-3.423.193-5.386.24-1.875.03-3.519.062-5.792.09.067,2.745.2,5.5.323,8.24h2.313c3.737.011,6.778.073,9.424.1h.019c-.293-2.84-.659-5.737-.9-8.674" transform="translate(-191.095 -44.11)" fill="#fdf9e3"/>
                </g>
              </g>
            </g>
            <g id="组_608" data-name="组 608" transform="translate(195.875 39.785)" opacity="0.2" style="mix-blend-mode: screen;isolation: isolate">
              <g id="组_607" data-name="组 607">
                <g id="组_606" data-name="组 606" clip-path="url(#clip-path-20)">
                  <path id="路径_3866" data-name="路径 3866" d="M212.185,48.556a45.01,45.01,0,0,0-3.036-4.567c.353,2.9-.23,5.823-.279,8.68.576-.059,1.117-.118,1.65-.216a28.63,28.63,0,0,0,3.069-.372,20.344,20.344,0,0,0-1.406-3.525" transform="translate(-208.871 -43.989)" fill="#fdf9e3"/>
                </g>
              </g>
            </g>
            <g id="组_611" data-name="组 611" transform="translate(198.045 29.408)" opacity="0.2" style="mix-blend-mode: screen;isolation: isolate">
              <g id="组_610" data-name="组 610">
                <g id="组_609" data-name="组 609" clip-path="url(#clip-path-21)">
                  <path id="路径_3867" data-name="路径 3867" d="M224.154,34.8c-4-.936-6.965-2.016-11.376-2.286a35.034,35.034,0,0,1-1.592,6.74,31.142,31.142,0,0,1,7.914,1.462q1.414.415,2.929.9c.268-.727.552-1.471.794-2.215.5-1.518.912-3.055,1.332-4.6" transform="translate(-211.185 -32.515)" fill="#fdf9e3"/>
                </g>
              </g>
            </g>
            <g id="组_617" data-name="组 617" transform="translate(0.327 3.292)" opacity="0.5" style="mix-blend-mode: screen;isolation: isolate">
              <g id="组_616" data-name="组 616">
                <g id="组_615" data-name="组 615" clip-path="url(#clip-path-22)">
                  <path id="路径_3868" data-name="路径 3868" d="M7.832,11.163A11.449,11.449,0,0,1,9.874,9.32,35.557,35.557,0,0,1,5.828,4.039a11.6,11.6,0,0,0-3.069,1.07A4.9,4.9,0,0,0,.349,8.2c1.263,1.027,3.4,1.6,5.535,2.316.624.208,1.258.431,1.948.644" transform="translate(-0.349 -3.678)" fill="#ffeed9"/>
                  <path id="路径_3869" data-name="路径 3869" d="M217.06,8.963c.356.49.775.978,1.16,1.47,4.5-.015,7.755-.191,11.18.037-.239-2.81-1.129-5.593-5.732-6.83a13.392,13.392,0,0,1-3.221,2.836c-1.119.79-2.26,1.621-3.387,2.487" transform="translate(-13.833 -3.64)" fill="#ffdc7c"/>
                  <g id="组_614" data-name="组 614" transform="translate(195.85 37.484)" opacity="0.9" style="mix-blend-mode: screen;isolation: isolate">
                    <g id="组_613" data-name="组 613">
                      <g id="组_612" data-name="组 612" clip-path="url(#clip-path-23)">
                        <path id="路径_3870" data-name="路径 3870" d="M209.67,45.269c-.141.059-.306.146-.472.224-.079,1.1.83,2.388,1.008,3.4.219,1.215.364,2.443.477,3.646a13.743,13.743,0,0,0,5.883-1.391,7.917,7.917,0,0,0,2.481-2.287c-2.943-1.328-5.777-2.406-8.99-3.773-.123.065-.253.122-.387.184" transform="translate(-209.194 -45.084)" fill="#ffdc7c"/>
                      </g>
                    </g>
                  </g>
                  <path id="路径_3871" data-name="路径 3871" d="M16.406,41.89a.394.394,0,0,1-.143.132,17.107,17.107,0,0,0-4.951,5.342,9.492,9.492,0,0,0,5.7,3.048,55.777,55.777,0,0,0,.713-8.1c-.463-.132-.895-.269-1.316-.424" transform="translate(-1.031 -7.295)" fill="#ffdc7c"/>
                </g>
              </g>
            </g>
            <path id="路径_3872" data-name="路径 3872" d="M8.429,8.992C7.2,7.446,5.811,5.959,4.8,4.375a10.141,10.141,0,0,0-1.886.765c-.041.018-.075.047-.1.06A64.554,64.554,0,0,0,8.429,8.992" transform="translate(-0.175 -0.418)" fill="#fff6e6"/>
            <path id="路径_3873" data-name="路径 3873" d="M220.134,10.51c1.114-.273,2.168-.535,3.18-.781,1.9-.592,3.567-1.278,5.148-1.94-2.549.772-5.325,1.59-8.328,2.721" transform="translate(-13.697 -0.744)" fill="#fff6e6"/>
            <path id="路径_3874" data-name="路径 3874" d="M227.915,6.184a6.878,6.878,0,0,0-2.6-1.948c-2.1,1.309-3.9,3.156-6.18,4.694-.067.049-.163.1-.245.157,3.362-1.184,6.383-2.055,9.026-2.9" transform="translate(-13.62 -0.405)" fill="#fff6e6"/>
            <path id="路径_3875" data-name="路径 3875" d="M215.1,49.033c.679.734,1.357,1.466,2.116,2.147a7.023,7.023,0,0,0,1.037-.793,12.8,12.8,0,0,1-2.4-1.166c-.635-.42-1.318-.8-2-1.188a6.8,6.8,0,0,1,1.246,1" transform="translate(-13.306 -4.59)" fill="#fff6e6"/>
            <path id="路径_3876" data-name="路径 3876" d="M12.455,48.682c.09-.18.168-.322.212-.417a21.738,21.738,0,0,1,1.878-3.371A22.187,22.187,0,0,0,11.83,48.15a8.12,8.12,0,0,0,.625.532" transform="translate(-0.736 -4.29)" fill="#fff6e6"/>
            <g id="组_620" data-name="组 620" opacity="0.6" style="mix-blend-mode: multiply;isolation: isolate">
              <g id="组_619" data-name="组 619">
                <g id="组_618" data-name="组 618" clip-path="url(#clip-path-24)">
                  <path id="路径_3877" data-name="路径 3877" d="M215.894,12.9c.231-3.762.58-8.252-6.349-9.781a72.342,72.342,0,0,0-9.71-1.062C193.438,1.626,186.421.927,173.2.727,139.65.214,60.021-.982,26.786,1.6c-7.157.563-12.884.961-17.217,1.453A19.368,19.368,0,0,0,2.736,4.723,5.223,5.223,0,0,0,.11,8.626a10.471,10.471,0,0,0,.218,3.952A64.64,64.64,0,0,0,2.584,22.919c1.133,3.932,2.509,7.67,3.73,11.234.559,1.645,1.167,3.233,1.835,4.8a18.927,18.927,0,0,0,1.929,3.75,9.4,9.4,0,0,0,7.1,3.817c3.255.288,7.7.241,14.937.387,15.091.311,30.367.669,45.51.875,20.312.284,83.859.616,104.211.685,3.737.011,6.779.073,9.425.1a32.495,32.495,0,0,0,6.261-.32,14.159,14.159,0,0,0,6.025-1.412,9.023,9.023,0,0,0,3.62-4.27,56.273,56.273,0,0,0,2.511-6.273c.936-2.819,1.506-5.713,2.554-8.592a71.628,71.628,0,0,0,2.886-9.306,34.966,34.966,0,0,0,.773-5.492m-7.106,22.6c-.61,1.816-1.223,3.633-1.9,5.42a11.451,11.451,0,0,1-3.051,4.773c-1.786,1.587-5.036,1.941-7.725,2.088-3.581.2-7.608.061-13.242.03-19.555-.08-82.285-.368-101.784-.639-15.446-.208-31-.629-46.44-.8-4.209-.059-12.215-.082-14.385-.2-4.557-.26-6.357-.876-7.547-1.594a8.233,8.233,0,0,1-2.889-3.1,55.529,55.529,0,0,1-3.715-9.374c-1.083-3.2-2.3-6.531-3.272-10.008C2.057,19.27,1.414,16.226.9,13.262A16.863,16.863,0,0,1,.553,9.873,5.028,5.028,0,0,1,3.942,4.93c1.925-.78,4.68-1.048,7.845-1.358C16.649,3.1,23.055,2.524,30.944,2.081c32.138-1.786,109.579-1.037,142.27-.55,12.526.181,19.246.879,25.545,1.271a85.655,85.655,0,0,1,9.924,1.11c4.066.74,5.629,1.994,6.157,4.7a18.7,18.7,0,0,1-.136,6.591c-1.087,6.711-3.655,13.555-5.915,20.3" transform="translate(0 0)" fill="#d47f02"/>
                </g>
              </g>
            </g>
          </g>
        </g>
        <g id="组_627" data-name="组 627" transform="translate(5.275 3.067)">
          <g id="蒙版组_1" data-name="蒙版组 1" clip-path="url(#clip-path-25)">
            <rect id="矩形_260" data-name="矩形 260" width="203.072" height="40.59" transform="translate(0)" fill="url(#linear-gradient-3)"/>
          </g>
        </g>
        <g id="组_639" data-name="组 639" transform="translate(0 0)">
          <g id="组_638" data-name="组 638" clip-path="url(#clip-path)">
            <g id="组_632" data-name="组 632" transform="translate(5.275 3.067)" opacity="0.9" style="mix-blend-mode: multiply;isolation: isolate">
              <g id="组_631" data-name="组 631">
                <g id="组_630" data-name="组 630" clip-path="url(#clip-path-27)">
                  <g id="组_629" data-name="组 629" transform="translate(0 0)">
                    <g id="组_628" data-name="组 628" clip-path="url(#clip-path-28)">
                      <path id="路径_3921" data-name="路径 3921" d="M0,0,175.575,3.165l3.017,166.92L3.017,166.92Z" transform="matrix(0.733, -0.68, 0.68, 0.733, -22.14, 18.199)" fill="url(#linear-gradient-4)"/>
                    </g>
                  </g>
                </g>
              </g>
            </g>
            <g id="组_637" data-name="组 637" transform="translate(12.488 26.123)" opacity="0.3" style="mix-blend-mode: multiply;isolation: isolate">
              <g id="组_636" data-name="组 636">
                <g id="组_635" data-name="组 635" clip-path="url(#clip-path-29)">
                  <g id="组_634" data-name="组 634" transform="translate(0 0)">
                    <g id="组_633" data-name="组 633" clip-path="url(#clip-path-30)">
                      <rect id="矩形_265" data-name="矩形 265" width="189.802" height="17.076" transform="translate(-1.662 -1.946)" fill="url(#radial-gradient)"/>
                    </g>
                  </g>
                </g>
              </g>
            </g>
          </g>
        </g>
        <path id="路径_4102" data-name="路径 4102" d="M204.764,22.485l-3.4,14.793s-1.331,5.621-6.953,5.769-19.97,0-19.97,0,18.343-.888,19.97-2.219,3.55-1.479,5.178-4.586S204.764,22.485,204.764,22.485Z" fill="#fff"/>
        <path id="路径_4114" data-name="路径 4114" d="M105.5,5.091c-15.75-.75-69.25,0-85.5,1.75s-13.5,5.5-13,9.75a80.231,80.231,0,0,0,4,15.75c1.25,2.75-4.5-14.5,1.5-20S98.75,5.091,105.5,5.091Z" transform="translate(1)" fill="#fff"/>
      </g>
      <g id="top圖騰" transform="translate(19.312 -24.317)">
        <g id="组_1102" data-name="组 1102" clip-path="url(#clip-path-31)">
          <path id="路径_4080" data-name="路径 4080" d="M132.714,10.759c-.66-.162-.382,1.7,1.692,1.02s.707-3.8-2.92-3.8-5.563,6-.452,8.146a14.087,14.087,0,0,0,6.327.87c8.518-.557,12.678-5.3,20.164-7.463,6.258-1.808,13.871-2.121,19.144,1.552,7.614,5.32,2.758,10.43-.313,9.665s-2.549-3.627-4.137-3.268-1.842,5.111,3.627,5.771,6.7-5.678,4.5-9.1S174.062,7.9,166.286,7.9A31.59,31.59,0,0,0,150.931,11.6c-2.816,1.4-5.435,3.187-9.085,4.021-5.111,1.182-9.584.093-11.38-1.854-2.318-2.526-.58-4.937.869-5.3,2.7-.66,3.384,2.747,1.379,2.283" fill-rule="evenodd" fill="url(#linear-gradient)"/>
          <path id="路径_4081" data-name="路径 4081" d="M151.87,11.79c2.492-1.286,7.672-2.492,8.668-1.217s.128,2.051.8,2.306,1.066-.869.846-1.738.4-.637.857.046a2.11,2.11,0,0,1-.092,2.052c-.232.3,1.251.938,1.553-.8s-1.947-3.488-5.76-3.233a14.09,14.09,0,0,0-6.872,2.584" fill-rule="evenodd" fill="url(#linear-gradient)"/>
          <path id="路径_4082" data-name="路径 4082" d="M141.035,15.8c3.9-1.171,4.739-4.126,3.869-4.995s-2.294.209-2.039.974-1.159.684-1.078-.151a2.146,2.146,0,0,1,2.584-1.715c1.611.209,1.426,2.457.638,3.5s.973-.383,1.276-1.426,1.076-.973,1.25-.486-1.3,3.465-6.026,4.5-1.761.232-.474-.2" fill-rule="evenodd" fill="url(#linear-gradient)"/>
          <path id="路径_4083" data-name="路径 4083" d="M166.981,8.232c4.3,1.147,5.574,3.65,5.157,5.226s.267,1.333,1.124.928,1.136.811.209,1.738,2.514.823,1.947-2.92-6.189-5.32-8.437-4.972" fill-rule="evenodd" fill="url(#linear-gradient)"/>
          <path id="路径_4084" data-name="路径 4084" d="M48.663,10.759c.661-.162.382,1.7-1.692,1.02s-.707-3.8,2.92-3.8,5.563,6,.452,8.146a14.087,14.087,0,0,1-6.327.87c-8.517-.557-12.678-5.3-20.164-7.463C17.594,7.723,9.981,7.41,4.708,11.083c-7.614,5.32-2.758,10.43.313,9.665S7.57,17.121,9.158,17.48,11,22.591,5.531,23.251s-6.7-5.678-4.5-9.1S7.315,7.9,15.091,7.9A31.59,31.59,0,0,1,30.446,11.6c2.816,1.4,5.435,3.187,9.085,4.021,5.111,1.182,9.584.093,11.38-1.854,2.318-2.526.58-4.937-.869-5.3-2.7-.66-3.384,2.747-1.379,2.283" fill-rule="evenodd" fill="url(#linear-gradient)"/>
          <path id="路径_4085" data-name="路径 4085" d="M29.508,11.79C27.016,10.5,21.836,9.3,20.84,10.573s-.128,2.051-.8,2.306-1.066-.869-.846-1.738-.405-.637-.857.046a2.11,2.11,0,0,0,.092,2.052c.232.3-1.251.938-1.553-.8s1.947-3.488,5.76-3.233a14.09,14.09,0,0,1,6.872,2.584" fill-rule="evenodd" fill="url(#linear-gradient)"/>
          <path id="路径_4086" data-name="路径 4086" d="M40.343,15.8c-3.9-1.171-4.74-4.126-3.871-4.995s2.295.209,2.04.974,1.159.684,1.078-.151a2.146,2.146,0,0,0-2.584-1.715c-1.611.209-1.426,2.457-.638,3.5s-.973-.383-1.275-1.426-1.077-.973-1.251-.486,1.3,3.465,6.026,4.5,1.761.232.475-.2" fill-rule="evenodd" fill="url(#linear-gradient)"/>
          <path id="路径_4087" data-name="路径 4087" d="M14.4,8.232c-4.3,1.147-5.574,3.65-5.157,5.226s-.266,1.333-1.124.928-1.136.811-.209,1.738-2.514.823-1.946-2.92,6.188-5.32,8.436-4.972" fill-rule="evenodd" fill="url(#linear-gradient)"/>
          <path id="路径_4088" data-name="路径 4088" d="M83.811,3.462c-.336-.687,1.089-1.274,1.491-.218a2.261,2.261,0,0,1-.687,2.431A2.857,2.857,0,0,1,80.557,4.6c-.855-1.777.47-5.08,4.46-4.543,4.007.553,5.533,5.264,3.622,8.852-3.387,6.337-12.558,7.293-18.56,4.61-4.611-2.079-10.142-8.03-14.954-3.839a8.257,8.257,0,0,0-2.332,6.237c.253,5.667,6.171,7.913,10.764,6.522,4.124-1.258,3.37-4.829,1.56-5.348a2.272,2.272,0,0,0-2.9,1.341c-.269.637-.855-1.66,1.173-2.6a2.88,2.88,0,0,1,3.622,1.09c.184.385.218-.486,1.14-.218.939.285,1.945,2.062.167,4.694-1.777,2.616-6.471,3.806-10.812,2.163a8.915,8.915,0,0,1-5.5-10.11,7.736,7.736,0,0,1,8.1-6.27c4.073.335,7.561,3.856,10.931,5.181a15.187,15.187,0,0,0,12.892-.587c4.527-2.565,5.5-6.17,4.242-8.618A4.524,4.524,0,0,0,82.1,1.249a2.1,2.1,0,0,0-.352,3.3,1.53,1.53,0,0,0,1.559.184.935.935,0,0,0,.5-1.274" fill-rule="evenodd" fill="url(#linear-gradient)"/>
          <path id="路径_4089" data-name="路径 4089" d="M81.111,14.426c-2.733.637-4.594,1.459-4.912,2.666-.336,1.207,1.173,1.291,1.693.872.52-.4.218.939-1.425,1.274a1.312,1.312,0,0,1-1.693-1.492,1.052,1.052,0,0,1-.906-.537c-.251-.553-.167-1.995,2.649-2.5a17.949,17.949,0,0,1,4.594-.285" fill-rule="evenodd" fill="url(#linear-gradient)"/>
          <path id="路径_4090" data-name="路径 4090" d="M73.986,14.678c-1.811-.4-3.521-.369-3.923.285-.419.654-.134,1.475-.436,1.392A2.753,2.753,0,0,1,68.42,14.46c-.034-.821-.47-.536-.554-1.006s.034-.939.956-.989c.939-.05,6.187,1.593,5.164,2.213" fill-rule="evenodd" fill="url(#linear-gradient)"/>
          <path id="路径_4091" data-name="路径 4091" d="M51.972,13.655c-.671,3.118-3.32,3.051-3.957,2.565-.62-.486.42,1.224,1.9,1.224s1.744-.352,1.341.151c-.419.486-1.827,1.123-1.157,1.174.688.05,2.364-.554,2.364-1.56a29.615,29.615,0,0,0-.486-3.554" fill-rule="evenodd" fill="url(#linear-gradient)"/>
          <path id="路径_4092" data-name="路径 4092" d="M97.559,3.462c.351-.687-1.074-1.274-1.476-.218a2.261,2.261,0,0,0,.688,2.431A2.836,2.836,0,0,0,100.812,4.6c.854-1.777-.454-5.08-4.46-4.543-3.991.553-5.534,5.264-3.606,8.852,3.387,6.337,12.558,7.293,18.543,4.61,4.627-2.079,10.144-8.03,14.972-3.839a8.25,8.25,0,0,1,2.315,6.237c-.236,5.667-6.153,7.913-10.748,6.522-4.14-1.258-3.37-4.829-1.575-5.348a2.3,2.3,0,0,1,2.917,1.341c.268.637.837-1.66-1.191-2.6a2.856,2.856,0,0,0-3.6,1.09c-.2.385-.217-.486-1.157-.218-.921.285-1.945,2.062-.167,4.694,1.793,2.616,6.471,3.806,10.814,2.163a8.929,8.929,0,0,0,5.516-10.11,7.755,7.755,0,0,0-8.114-6.27c-4.075.335-7.546,3.856-10.915,5.181a15.191,15.191,0,0,1-12.894-.587C92.914,9.213,91.941,5.608,93.2,3.16a4.542,4.542,0,0,1,6.085-1.911,2.124,2.124,0,0,1,.352,3.3,1.531,1.531,0,0,1-1.559.184.94.94,0,0,1-.519-1.274" fill-rule="evenodd" fill="url(#linear-gradient)"/>
          <path id="路径_4093" data-name="路径 4093" d="M100.275,14.426c2.716.637,4.577,1.459,4.912,2.666.319,1.207-1.173,1.291-1.693.872-.52-.4-.218.939,1.425,1.274a1.318,1.318,0,0,0,1.693-1.492,1.052,1.052,0,0,0,.906-.537c.234-.553.151-1.995-2.666-2.5a17.819,17.819,0,0,0-4.577-.285" fill-rule="evenodd" fill="url(#linear-gradient)"/>
          <path id="路径_4094" data-name="路径 4094" d="M107.4,14.678c1.794-.4,3.5-.369,3.923.285.4.654.134,1.475.436,1.392a2.753,2.753,0,0,0,1.207-1.895c.017-.821.453-.536.537-1.006s-.017-.939-.956-.989c-.922-.05-6.186,1.593-5.147,2.213" fill-rule="evenodd" fill="url(#linear-gradient)"/>
          <path id="路径_4095" data-name="路径 4095" d="M129.413,13.655c.654,3.118,3.32,3.051,3.94,2.565.637-.486-.4,1.224-1.878,1.224-1.492,0-1.76-.352-1.341.151.4.486,1.827,1.123,1.14,1.174s-2.347-.554-2.347-1.56a29.616,29.616,0,0,1,.486-3.554" fill-rule="evenodd" fill="url(#linear-gradient)"/>
          <path id="路径_4096" data-name="路径 4096" d="M90.685,7.77l1.358-1.358L90.685,5.071,89.344,6.412Z" fill-rule="evenodd" fill="url(#linear-gradient)"/>
          <path id="路径_4097" data-name="路径 4097" d="M91.473,7.72a6.625,6.625,0,0,0,2.28,4.678c2.38,2.28,5.281,2.6,4.929,2.883a6.161,6.161,0,0,1-4.208.134c-1.593-.637-1.812-1.626-1.812-1.626s-.419.285.956,1.928,2.3,1.945,1.945,2.13a4.26,4.26,0,0,1-3.419-1.275,7.045,7.045,0,0,1-1.459,3.856,7.1,7.1,0,0,1-1.442-3.856,4.264,4.264,0,0,1-3.42,1.275c-.37-.185.57-.487,1.945-2.13,1.358-1.643.955-1.928.955-1.928s-.218.989-1.811,1.626a6.208,6.208,0,0,1-4.224-.134c-.352-.285,2.547-.6,4.929-2.883a6.471,6.471,0,0,0,2.2-4.779l.855.872Z" fill-rule="evenodd" fill="url(#linear-gradient)"/>
          <path id="路径_4098" data-name="路径 4098" d="M83.039,13.789c-3.839,2.129-3.37,7.176-.335,7.695,3.034.537,2.917-2.4,1.877-2.6-1.022-.2-.737.52-1.576.771-.821.252-1.643-.9-.7-1.978s3.454-.369,3.773,1.878c.3,2.246-2.046,3.369-3.89,2.732a4.423,4.423,0,0,1-2.817-4.828,5.636,5.636,0,0,1,3.722-4.326c1.643-.637.973.285-.05.654" fill-rule="evenodd" fill="url(#linear-gradient)"/>
          <path id="路径_4099" data-name="路径 4099" d="M98.246,13.789c3.839,2.129,3.37,7.176.335,7.695-3.034.537-2.9-2.4-1.877-2.6s.737.52,1.576.771c.821.252,1.659-.9.7-1.978-.939-1.073-3.454-.369-3.773,1.878-.3,2.246,2.046,3.369,3.89,2.732a4.4,4.4,0,0,0,2.817-4.828A5.579,5.579,0,0,0,98.2,13.135c-1.643-.637-.973.285.05.654" fill-rule="evenodd" fill="url(#linear-gradient)"/>
          <path id="路径_4100" data-name="路径 4100" d="M88.572,5.339c-.436-1.827,4.694-1.777,4.258.05,0,0,.788-.8.252-1.525-.771-1.057-3.94-1.057-4.711,0-.537.72.2,1.475.2,1.475" fill-rule="evenodd" fill="url(#linear-gradient)"/>
          <path id="路径_4101" data-name="路径 4101" d="M87.968,3.948c.989-1.76,4.46-1.76,5.449,0,.335-.486.251-.939-.57-1.475a3.969,3.969,0,0,0-4.326,0c-.8.536-.871,1.006-.553,1.475" fill-rule="evenodd" fill="url(#linear-gradient)"/>
        </g>
      </g>
    </g>
  </g>
</svg>
